  0
SECTION
  2
HEADER
  9
$ACADVER
  1
AC2.10
  0
ENDSEC
  0
SECTION
  2
TABLES
  0
TABLE
  2
LAYER
 70
     8
  0
LAYER
  2
0
 62
     7
 70
0
  6
CONTINUOUS
  0
LAYER
  2
1
 62
     1
 70
0
  6
CONTINUOUS
  0
LAYER
  2
2
 62
     2
 70
0
  6
CONTINUOUS
  0
LAYER
  2
3
 62
     3
 70
0
  6
CONTINUOUS
  0
LAYER
  2
4
 62
     4
 70
0
  6
CONTINUOUS
  0
LAYER
  2
5
 62
     5
 70
0
  6
CONTINUOUS
  0
LAYER
  2
6
 62
     6
 70
0
  6
CONTINUOUS
  0
LAYER
  2
7
 62
     7
 70
0
  6
CONTINUOUS
  0
ENDTAB
  0
TABLE
  2
STYLE
 70
     1
  0
STYLE
 70
     0
  2
STANDARD
  3
TXT
 40
0.00
 41
1.00
 42
1.00
 50
0.00
 71
     0
  0
ENDTAB
  0
ENDSEC
  0
SECTION
  2
BLOCKS
  0
BLOCK
  8
0
  2
EPAD
 70
0
 10
0.0
 20
0.0
  0
POLYLINE
  8
0
 66
1
 70
1
 40
0.5
 41
0.5
  0
VERTEX
  8
0
 10
-0.25
 20
0.0
 42
1.0
  0
VERTEX
  8
0
 10
0.25
 20
0.0
 42
1.0
  0
SEQEND
  8
0
  0
ENDBLK
  8
0
  0
BLOCK
  8
0
  2
RPAD
 70
0
 10
0.0
 20
0.0
  0
TRACE
  8
0
 10
-0.5
 20
-0.5
 11
-0.5
 21
0.5
 12
0.5
 22
-0.5
 13
0.5
 23
0.5
  0
ENDBLK
  8
0
  0
ENDSEC
0
SECTION
2
ENTITIES
0
INSERT
8
0
2
EPAD
10
0.650000
20
-1.513000
41
0.059000
42
0.059000
0
INSERT
8
0
2
EPAD
10
0.650000
20
-1.600000
41
0.059000
42
0.059000
0
INSERT
8
0
2
EPAD
10
0.256000
20
-1.147000
41
0.059000
42
0.059000
0
INSERT
8
0
2
RPAD
10
-1.624000
20
1.413000
41
0.100000
42
0.170000
50
0.000000
0
INSERT
8
0
2
RPAD
10
-1.438000
20
1.413000
41
0.100000
42
0.170000
50
0.000000
0
INSERT
8
0
2
RPAD
10
0.315000
20
-0.096000
41
0.055000
42
0.060000
50
180.000000
0
INSERT
8
0
2
RPAD
10
0.241000
20
-0.096000
41
0.055000
42
0.060000
50
180.000000
0
INSERT
8
0
2
RPAD
10
0.278000
20
-0.021000
41
0.055000
42
0.060000
50
180.000000
0
INSERT
8
0
2
RPAD
10
0.378000
20
-0.096000
41
0.060000
42
0.070000
50
90.000000
0
INSERT
8
0
2
RPAD
10
0.378000
20
-0.012000
41
0.060000
42
0.070000
50
90.000000
0
INSERT
8
0
2
RPAD
10
0.319000
20
-0.159000
41
0.060000
42
0.070000
50
0.000000
0
INSERT
8
0
2
RPAD
10
0.403000
20
-0.159000
41
0.060000
42
0.070000
50
0.000000
0
INSERT
8
0
2
RPAD
10
0.319000
20
-0.226000
41
0.060000
42
0.070000
50
0.000000
0
INSERT
8
0
2
RPAD
10
0.403000
20
-0.226000
41
0.060000
42
0.070000
50
0.000000
0
INSERT
8
0
2
RPAD
10
0.319000
20
-0.293000
41
0.060000
42
0.070000
50
0.000000
0
INSERT
8
0
2
RPAD
10
0.403000
20
-0.293000
41
0.060000
42
0.070000
50
0.000000
0
INSERT
8
0
2
RPAD
10
0.319000
20
-0.360000
41
0.060000
42
0.070000
50
0.000000
0
INSERT
8
0
2
RPAD
10
0.403000
20
-0.360000
41
0.060000
42
0.070000
50
0.000000
0
INSERT
8
0
2
RPAD
10
0.177000
20
-0.159000
41
0.060000
42
0.070000
50
0.000000
0
INSERT
8
0
2
RPAD
10
0.261000
20
-0.159000
41
0.060000
42
0.070000
50
0.000000
0
INSERT
8
0
2
RPAD
10
0.028000
20
-0.096000
41
0.060000
42
0.070000
50
0.000000
0
INSERT
8
0
2
RPAD
10
0.112000
20
-0.096000
41
0.060000
42
0.070000
50
0.000000
0
INSERT
8
0
2
RPAD
10
0.028000
20
-0.159000
41
0.060000
42
0.070000
50
0.000000
0
INSERT
8
0
2
RPAD
10
0.112000
20
-0.159000
41
0.060000
42
0.070000
50
0.000000
0
INSERT
8
0
2
RPAD
10
0.220000
20
-0.234000
41
0.085000
42
0.140000
50
90.000000
0
INSERT
8
0
2
RPAD
10
0.220000
20
-0.352000
41
0.085000
42
0.140000
50
90.000000
0
INSERT
8
0
2
RPAD
10
0.063000
20
-0.234000
41
0.085000
42
0.140000
50
90.000000
0
INSERT
8
0
2
RPAD
10
0.063000
20
-0.352000
41
0.085000
42
0.140000
50
90.000000
0
INSERT
8
0
2
RPAD
10
0.028000
20
-0.033000
41
0.060000
42
0.070000
50
0.000000
0
INSERT
8
0
2
RPAD
10
0.112000
20
-0.033000
41
0.060000
42
0.070000
50
0.000000
0
INSERT
8
0
2
RPAD
10
0.184000
20
-0.107000
41
0.060000
42
0.070000
50
90.000000
0
INSERT
8
0
2
RPAD
10
0.184000
20
-0.023000
41
0.060000
42
0.070000
50
90.000000
0
INSERT
8
0
2
RPAD
10
0.484000
20
-0.135000
41
0.060000
42
0.080000
50
90.000000
0
INSERT
8
0
2
RPAD
10
0.484000
20
-0.011000
41
0.060000
42
0.080000
50
90.000000
0
INSERT
8
0
2
RPAD
10
0.480000
20
-0.356000
41
0.075000
42
0.090000
50
90.000000
0
INSERT
8
0
2
RPAD
10
0.480000
20
-0.222000
41
0.075000
42
0.090000
50
90.000000
0
INSERT
8
0
2
RPAD
10
0.287000
20
0.072000
41
0.085000
42
0.140000
50
0.000000
0
INSERT
8
0
2
RPAD
10
0.051000
20
0.230000
41
0.085000
42
0.140000
50
0.000000
0
INSERT
8
0
2
RPAD
10
0.157000
20
0.072000
41
0.085000
42
0.140000
50
0.000000
0
INSERT
8
0
2
RPAD
10
0.189000
20
0.230000
41
0.085000
42
0.140000
50
0.000000
0
INSERT
8
0
2
RPAD
10
0.559000
20
-0.226000
41
0.060000
42
0.070000
50
90.000000
0
INSERT
8
0
2
RPAD
10
0.559000
20
-0.142000
41
0.060000
42
0.070000
50
90.000000
0
INSERT
8
0
2
RPAD
10
0.559000
20
-0.364000
41
0.060000
42
0.070000
50
90.000000
0
INSERT
8
0
2
RPAD
10
0.559000
20
-0.280000
41
0.060000
42
0.070000
50
90.000000
0
INSERT
8
0
2
RPAD
10
0.626000
20
-0.226000
41
0.060000
42
0.070000
50
90.000000
0
INSERT
8
0
2
RPAD
10
0.626000
20
-0.142000
41
0.060000
42
0.070000
50
90.000000
0
INSERT
8
0
2
RPAD
10
0.626000
20
-0.364000
41
0.060000
42
0.070000
50
90.000000
0
INSERT
8
0
2
RPAD
10
0.626000
20
-0.280000
41
0.060000
42
0.070000
50
90.000000
0
INSERT
8
0
2
RPAD
10
0.748000
20
-0.234000
41
0.085000
42
0.140000
50
90.000000
0
INSERT
8
0
2
RPAD
10
0.748000
20
-0.352000
41
0.085000
42
0.140000
50
90.000000
0
INSERT
8
0
2
RPAD
10
0.709000
20
-0.159000
41
0.060000
42
0.070000
50
0.000000
0
INSERT
8
0
2
RPAD
10
0.793000
20
-0.159000
41
0.060000
42
0.070000
50
0.000000
0
INSERT
8
0
2
RPAD
10
0.709000
20
-0.092000
41
0.060000
42
0.070000
50
0.000000
0
INSERT
8
0
2
RPAD
10
0.793000
20
-0.092000
41
0.060000
42
0.070000
50
0.000000
0
INSERT
8
0
2
RPAD
10
0.370000
20
0.060000
41
0.060000
42
0.070000
50
90.000000
0
INSERT
8
0
2
RPAD
10
0.370000
20
0.144000
41
0.060000
42
0.070000
50
90.000000
0
INSERT
8
0
2
RPAD
10
0.370000
20
0.194000
41
0.060000
42
0.070000
50
90.000000
0
INSERT
8
0
2
RPAD
10
0.370000
20
0.278000
41
0.060000
42
0.070000
50
90.000000
0
INSERT
8
0
2
RPAD
10
0.429000
20
0.273000
41
0.060000
42
0.070000
50
0.000000
0
INSERT
8
0
2
RPAD
10
0.513000
20
0.273000
41
0.060000
42
0.070000
50
0.000000
0
INSERT
8
0
2
RPAD
10
0.437000
20
0.092000
41
0.060000
42
0.070000
50
90.000000
0
INSERT
8
0
2
RPAD
10
0.437000
20
0.176000
41
0.060000
42
0.070000
50
90.000000
0
INSERT
8
0
2
RPAD
10
0.504000
20
0.052000
41
0.060000
42
0.070000
50
90.000000
0
INSERT
8
0
2
RPAD
10
0.504000
20
0.136000
41
0.060000
42
0.070000
50
90.000000
0
INSERT
8
0
2
RPAD
10
0.571000
20
0.182000
41
0.060000
42
0.070000
50
90.000000
0
INSERT
8
0
2
RPAD
10
0.571000
20
0.266000
41
0.060000
42
0.070000
50
90.000000
0
INSERT
8
0
2
RPAD
10
0.760000
20
0.139000
41
0.091000
42
0.102000
50
90.000000
0
INSERT
8
0
2
RPAD
10
0.760000
20
0.263000
41
0.091000
42
0.102000
50
90.000000
0
INSERT
8
0
2
RPAD
10
0.797000
20
0.201000
41
0.045000
42
0.070000
50
90.000000
0
INSERT
8
0
2
RPAD
10
0.723000
20
0.201000
41
0.045000
42
0.070000
50
90.000000
0
INSERT
8
0
2
RPAD
10
0.638000
20
0.182000
41
0.060000
42
0.070000
50
90.000000
0
INSERT
8
0
2
RPAD
10
0.638000
20
0.266000
41
0.060000
42
0.070000
50
90.000000
0
INSERT
8
0
2
RPAD
10
0.579000
20
0.052000
41
0.055000
42
0.060000
50
90.000000
0
INSERT
8
0
2
RPAD
10
0.579000
20
0.126000
41
0.055000
42
0.060000
50
90.000000
0
INSERT
8
0
2
RPAD
10
0.654000
20
0.089000
41
0.055000
42
0.060000
50
90.000000
0
INSERT
8
0
2
RPAD
10
0.606000
20
-0.086000
41
0.060000
42
0.070000
50
90.000000
0
INSERT
8
0
2
RPAD
10
0.606000
20
-0.002000
41
0.060000
42
0.070000
50
90.000000
0
INSERT
8
0
2
RPAD
10
0.709000
20
0.052000
41
0.060000
42
0.070000
50
0.000000
0
INSERT
8
0
2
RPAD
10
0.793000
20
0.052000
41
0.060000
42
0.070000
50
0.000000
0
INSERT
8
0
2
RPAD
10
0.709000
20
-0.017000
41
0.060000
42
0.070000
50
0.000000
0
INSERT
8
0
2
RPAD
10
0.793000
20
-0.017000
41
0.060000
42
0.070000
50
0.000000
0
INSERT
8
0
2
RPAD
10
-0.637000
20
-0.096000
41
0.055000
42
0.060000
50
180.000000
0
INSERT
8
0
2
RPAD
10
-0.711000
20
-0.096000
41
0.055000
42
0.060000
50
180.000000
0
INSERT
8
0
2
RPAD
10
-0.674000
20
-0.021000
41
0.055000
42
0.060000
50
180.000000
0
INSERT
8
0
2
RPAD
10
-0.574000
20
-0.096000
41
0.060000
42
0.070000
50
90.000000
0
INSERT
8
0
2
RPAD
10
-0.574000
20
-0.012000
41
0.060000
42
0.070000
50
90.000000
0
INSERT
8
0
2
RPAD
10
-0.633000
20
-0.159000
41
0.060000
42
0.070000
50
0.000000
0
INSERT
8
0
2
RPAD
10
-0.549000
20
-0.159000
41
0.060000
42
0.070000
50
0.000000
0
INSERT
8
0
2
RPAD
10
-0.633000
20
-0.226000
41
0.060000
42
0.070000
50
0.000000
0
INSERT
8
0
2
RPAD
10
-0.549000
20
-0.226000
41
0.060000
42
0.070000
50
0.000000
0
INSERT
8
0
2
RPAD
10
-0.633000
20
-0.293000
41
0.060000
42
0.070000
50
0.000000
0
INSERT
8
0
2
RPAD
10
-0.549000
20
-0.293000
41
0.060000
42
0.070000
50
0.000000
0
INSERT
8
0
2
RPAD
10
-0.633000
20
-0.360000
41
0.060000
42
0.070000
50
0.000000
0
INSERT
8
0
2
RPAD
10
-0.549000
20
-0.360000
41
0.060000
42
0.070000
50
0.000000
0
INSERT
8
0
2
RPAD
10
-0.775000
20
-0.159000
41
0.060000
42
0.070000
50
0.000000
0
INSERT
8
0
2
RPAD
10
-0.691000
20
-0.159000
41
0.060000
42
0.070000
50
0.000000
0
INSERT
8
0
2
RPAD
10
-0.924000
20
-0.096000
41
0.060000
42
0.070000
50
0.000000
0
INSERT
8
0
2
RPAD
10
-0.840000
20
-0.096000
41
0.060000
42
0.070000
50
0.000000
0
INSERT
8
0
2
RPAD
10
-0.924000
20
-0.159000
41
0.060000
42
0.070000
50
0.000000
0
INSERT
8
0
2
RPAD
10
-0.840000
20
-0.159000
41
0.060000
42
0.070000
50
0.000000
0
INSERT
8
0
2
RPAD
10
-0.731000
20
-0.234000
41
0.085000
42
0.140000
50
90.000000
0
INSERT
8
0
2
RPAD
10
-0.731000
20
-0.352000
41
0.085000
42
0.140000
50
90.000000
0
INSERT
8
0
2
RPAD
10
-0.889000
20
-0.234000
41
0.085000
42
0.140000
50
90.000000
0
INSERT
8
0
2
RPAD
10
-0.889000
20
-0.352000
41
0.085000
42
0.140000
50
90.000000
0
INSERT
8
0
2
RPAD
10
-0.924000
20
-0.033000
41
0.060000
42
0.070000
50
0.000000
0
INSERT
8
0
2
RPAD
10
-0.840000
20
-0.033000
41
0.060000
42
0.070000
50
0.000000
0
INSERT
8
0
2
RPAD
10
-0.768000
20
-0.107000
41
0.060000
42
0.070000
50
90.000000
0
INSERT
8
0
2
RPAD
10
-0.768000
20
-0.023000
41
0.060000
42
0.070000
50
90.000000
0
INSERT
8
0
2
RPAD
10
-0.468000
20
-0.135000
41
0.060000
42
0.080000
50
90.000000
0
INSERT
8
0
2
RPAD
10
-0.468000
20
-0.011000
41
0.060000
42
0.080000
50
90.000000
0
INSERT
8
0
2
RPAD
10
-0.471000
20
-0.356000
41
0.075000
42
0.090000
50
90.000000
0
INSERT
8
0
2
RPAD
10
-0.471000
20
-0.222000
41
0.075000
42
0.090000
50
90.000000
0
INSERT
8
0
2
RPAD
10
-0.664000
20
0.072000
41
0.085000
42
0.140000
50
0.000000
0
INSERT
8
0
2
RPAD
10
-0.901000
20
0.230000
41
0.085000
42
0.140000
50
0.000000
0
INSERT
8
0
2
RPAD
10
-0.794000
20
0.072000
41
0.085000
42
0.140000
50
0.000000
0
INSERT
8
0
2
RPAD
10
-0.763000
20
0.230000
41
0.085000
42
0.140000
50
0.000000
0
INSERT
8
0
2
RPAD
10
-0.393000
20
-0.226000
41
0.060000
42
0.070000
50
90.000000
0
INSERT
8
0
2
RPAD
10
-0.393000
20
-0.142000
41
0.060000
42
0.070000
50
90.000000
0
INSERT
8
0
2
RPAD
10
-0.393000
20
-0.364000
41
0.060000
42
0.070000
50
90.000000
0
INSERT
8
0
2
RPAD
10
-0.393000
20
-0.280000
41
0.060000
42
0.070000
50
90.000000
0
INSERT
8
0
2
RPAD
10
-0.326000
20
-0.226000
41
0.060000
42
0.070000
50
90.000000
0
INSERT
8
0
2
RPAD
10
-0.326000
20
-0.142000
41
0.060000
42
0.070000
50
90.000000
0
INSERT
8
0
2
RPAD
10
-0.326000
20
-0.364000
41
0.060000
42
0.070000
50
90.000000
0
INSERT
8
0
2
RPAD
10
-0.326000
20
-0.280000
41
0.060000
42
0.070000
50
90.000000
0
INSERT
8
0
2
RPAD
10
-0.204000
20
-0.234000
41
0.085000
42
0.140000
50
90.000000
0
INSERT
8
0
2
RPAD
10
-0.204000
20
-0.352000
41
0.085000
42
0.140000
50
90.000000
0
INSERT
8
0
2
RPAD
10
-0.243000
20
-0.159000
41
0.060000
42
0.070000
50
0.000000
0
INSERT
8
0
2
RPAD
10
-0.159000
20
-0.159000
41
0.060000
42
0.070000
50
0.000000
0
INSERT
8
0
2
RPAD
10
-0.243000
20
-0.092000
41
0.060000
42
0.070000
50
0.000000
0
INSERT
8
0
2
RPAD
10
-0.159000
20
-0.092000
41
0.060000
42
0.070000
50
0.000000
0
INSERT
8
0
2
RPAD
10
-0.582000
20
0.060000
41
0.060000
42
0.070000
50
90.000000
0
INSERT
8
0
2
RPAD
10
-0.582000
20
0.144000
41
0.060000
42
0.070000
50
90.000000
0
INSERT
8
0
2
RPAD
10
-0.582000
20
0.194000
41
0.060000
42
0.070000
50
90.000000
0
INSERT
8
0
2
RPAD
10
-0.582000
20
0.278000
41
0.060000
42
0.070000
50
90.000000
0
INSERT
8
0
2
RPAD
10
-0.523000
20
0.273000
41
0.060000
42
0.070000
50
0.000000
0
INSERT
8
0
2
RPAD
10
-0.439000
20
0.273000
41
0.060000
42
0.070000
50
0.000000
0
INSERT
8
0
2
RPAD
10
-0.515000
20
0.092000
41
0.060000
42
0.070000
50
90.000000
0
INSERT
8
0
2
RPAD
10
-0.515000
20
0.176000
41
0.060000
42
0.070000
50
90.000000
0
INSERT
8
0
2
RPAD
10
-0.448000
20
0.052000
41
0.060000
42
0.070000
50
90.000000
0
INSERT
8
0
2
RPAD
10
-0.448000
20
0.136000
41
0.060000
42
0.070000
50
90.000000
0
INSERT
8
0
2
RPAD
10
-0.381000
20
0.182000
41
0.060000
42
0.070000
50
90.000000
0
INSERT
8
0
2
RPAD
10
-0.381000
20
0.266000
41
0.060000
42
0.070000
50
90.000000
0
INSERT
8
0
2
RPAD
10
-0.192000
20
0.139000
41
0.091000
42
0.102000
50
90.000000
0
INSERT
8
0
2
RPAD
10
-0.192000
20
0.263000
41
0.091000
42
0.102000
50
90.000000
0
INSERT
8
0
2
RPAD
10
-0.155000
20
0.201000
41
0.045000
42
0.070000
50
90.000000
0
INSERT
8
0
2
RPAD
10
-0.229000
20
0.201000
41
0.045000
42
0.070000
50
90.000000
0
INSERT
8
0
2
RPAD
10
-0.314000
20
0.182000
41
0.060000
42
0.070000
50
90.000000
0
INSERT
8
0
2
RPAD
10
-0.314000
20
0.266000
41
0.060000
42
0.070000
50
90.000000
0
INSERT
8
0
2
RPAD
10
-0.373000
20
0.052000
41
0.055000
42
0.060000
50
90.000000
0
INSERT
8
0
2
RPAD
10
-0.373000
20
0.126000
41
0.055000
42
0.060000
50
90.000000
0
INSERT
8
0
2
RPAD
10
-0.298000
20
0.089000
41
0.055000
42
0.060000
50
90.000000
0
INSERT
8
0
2
RPAD
10
-0.346000
20
-0.086000
41
0.060000
42
0.070000
50
90.000000
0
INSERT
8
0
2
RPAD
10
-0.346000
20
-0.002000
41
0.060000
42
0.070000
50
90.000000
0
INSERT
8
0
2
RPAD
10
-0.243000
20
0.052000
41
0.060000
42
0.070000
50
0.000000
0
INSERT
8
0
2
RPAD
10
-0.159000
20
0.052000
41
0.060000
42
0.070000
50
0.000000
0
INSERT
8
0
2
RPAD
10
-0.243000
20
-0.017000
41
0.060000
42
0.070000
50
0.000000
0
INSERT
8
0
2
RPAD
10
-0.159000
20
-0.017000
41
0.060000
42
0.070000
50
0.000000
0
INSERT
8
0
2
RPAD
10
-0.200000
20
-0.815000
41
0.032000
42
0.090000
50
0.000000
0
INSERT
8
0
2
RPAD
10
-0.174000
20
-0.815000
41
0.032000
42
0.090000
50
0.000000
0
INSERT
8
0
2
RPAD
10
-0.149000
20
-0.815000
41
0.032000
42
0.090000
50
0.000000
0
INSERT
8
0
2
RPAD
10
-0.123000
20
-0.815000
41
0.032000
42
0.090000
50
0.000000
0
INSERT
8
0
2
RPAD
10
-0.098000
20
-0.815000
41
0.032000
42
0.090000
50
0.000000
0
INSERT
8
0
2
RPAD
10
-0.072000
20
-0.815000
41
0.032000
42
0.090000
50
0.000000
0
INSERT
8
0
2
RPAD
10
-0.047000
20
-0.815000
41
0.032000
42
0.090000
50
0.000000
0
INSERT
8
0
2
RPAD
10
-0.021000
20
-0.815000
41
0.032000
42
0.090000
50
0.000000
0
INSERT
8
0
2
RPAD
10
-0.021000
20
-0.602000
41
0.032000
42
0.090000
50
0.000000
0
INSERT
8
0
2
RPAD
10
-0.047000
20
-0.602000
41
0.032000
42
0.090000
50
0.000000
0
INSERT
8
0
2
RPAD
10
-0.072000
20
-0.602000
41
0.032000
42
0.090000
50
0.000000
0
INSERT
8
0
2
RPAD
10
-0.098000
20
-0.602000
41
0.032000
42
0.090000
50
0.000000
0
INSERT
8
0
2
RPAD
10
-0.123000
20
-0.602000
41
0.032000
42
0.090000
50
0.000000
0
INSERT
8
0
2
RPAD
10
-0.149000
20
-0.602000
41
0.032000
42
0.090000
50
0.000000
0
INSERT
8
0
2
RPAD
10
-0.174000
20
-0.602000
41
0.032000
42
0.090000
50
0.000000
0
INSERT
8
0
2
RPAD
10
-0.200000
20
-0.602000
41
0.032000
42
0.090000
50
0.000000
0
INSERT
8
0
2
RPAD
10
-0.031000
20
-0.500000
41
0.060000
42
0.070000
50
0.000000
0
INSERT
8
0
2
RPAD
10
0.052000
20
-0.500000
41
0.060000
42
0.070000
50
0.000000
0
INSERT
8
0
2
RPAD
10
0.063000
20
-0.935000
41
0.045000
42
0.100000
50
90.000000
0
INSERT
8
0
2
RPAD
10
0.443000
20
-1.585000
41
0.045000
42
0.100000
50
-90.000000
0
INSERT
8
0
2
RPAD
10
0.063000
20
-0.985000
41
0.045000
42
0.100000
50
90.000000
0
INSERT
8
0
2
RPAD
10
0.443000
20
-1.535000
41
0.045000
42
0.100000
50
-90.000000
0
INSERT
8
0
2
RPAD
10
0.063000
20
-1.035000
41
0.045000
42
0.100000
50
90.000000
0
INSERT
8
0
2
RPAD
10
0.443000
20
-1.485000
41
0.045000
42
0.100000
50
-90.000000
0
INSERT
8
0
2
RPAD
10
0.063000
20
-1.085000
41
0.045000
42
0.100000
50
90.000000
0
INSERT
8
0
2
RPAD
10
0.443000
20
-1.435000
41
0.045000
42
0.100000
50
-90.000000
0
INSERT
8
0
2
RPAD
10
0.063000
20
-1.135000
41
0.045000
42
0.100000
50
90.000000
0
INSERT
8
0
2
RPAD
10
0.443000
20
-1.385000
41
0.045000
42
0.100000
50
-90.000000
0
INSERT
8
0
2
RPAD
10
0.063000
20
-1.185000
41
0.045000
42
0.100000
50
90.000000
0
INSERT
8
0
2
RPAD
10
0.443000
20
-1.335000
41
0.045000
42
0.100000
50
-90.000000
0
INSERT
8
0
2
RPAD
10
0.063000
20
-1.235000
41
0.045000
42
0.100000
50
90.000000
0
INSERT
8
0
2
RPAD
10
0.443000
20
-1.285000
41
0.045000
42
0.100000
50
-90.000000
0
INSERT
8
0
2
RPAD
10
0.063000
20
-1.285000
41
0.045000
42
0.100000
50
90.000000
0
INSERT
8
0
2
RPAD
10
0.443000
20
-1.235000
41
0.045000
42
0.100000
50
-90.000000
0
INSERT
8
0
2
RPAD
10
0.063000
20
-1.335000
41
0.045000
42
0.100000
50
90.000000
0
INSERT
8
0
2
RPAD
10
0.443000
20
-1.185000
41
0.045000
42
0.100000
50
-90.000000
0
INSERT
8
0
2
RPAD
10
0.063000
20
-1.385000
41
0.045000
42
0.100000
50
90.000000
0
INSERT
8
0
2
RPAD
10
0.443000
20
-1.135000
41
0.045000
42
0.100000
50
-90.000000
0
INSERT
8
0
2
RPAD
10
0.063000
20
-1.435000
41
0.045000
42
0.100000
50
90.000000
0
INSERT
8
0
2
RPAD
10
0.443000
20
-1.085000
41
0.045000
42
0.100000
50
-90.000000
0
INSERT
8
0
2
RPAD
10
0.063000
20
-1.485000
41
0.045000
42
0.100000
50
90.000000
0
INSERT
8
0
2
RPAD
10
0.443000
20
-1.035000
41
0.045000
42
0.100000
50
-90.000000
0
INSERT
8
0
2
RPAD
10
0.063000
20
-1.535000
41
0.045000
42
0.100000
50
90.000000
0
INSERT
8
0
2
RPAD
10
0.443000
20
-0.985000
41
0.045000
42
0.100000
50
-90.000000
0
INSERT
8
0
2
RPAD
10
0.063000
20
-1.585000
41
0.045000
42
0.100000
50
90.000000
0
INSERT
8
0
2
RPAD
10
0.443000
20
-0.935000
41
0.045000
42
0.100000
50
-90.000000
0
INSERT
8
0
2
RPAD
10
-0.126000
20
-1.495000
41
0.100000
42
0.170000
50
0.000000
0
INSERT
8
0
2
RPAD
10
-0.126000
20
-1.115000
41
0.100000
42
0.170000
50
0.000000
0
INSERT
8
0
2
RPAD
10
-0.038000
20
-1.710000
41
0.060000
42
0.070000
50
90.000000
0
INSERT
8
0
2
RPAD
10
-0.038000
20
-1.626000
41
0.060000
42
0.070000
50
90.000000
0
INSERT
8
0
2
RPAD
10
-0.222000
20
-0.990000
41
0.060000
42
0.070000
50
90.000000
0
INSERT
8
0
2
RPAD
10
-0.222000
20
-0.906000
41
0.060000
42
0.070000
50
90.000000
0
INSERT
8
0
2
RPAD
10
0.350000
20
-1.687000
41
0.060000
42
0.070000
50
0.000000
0
INSERT
8
0
2
RPAD
10
0.434000
20
-1.687000
41
0.060000
42
0.070000
50
0.000000
0
INSERT
8
0
2
RPAD
10
-1.108000
20
-0.397000
41
0.085000
42
0.080000
50
180.000000
0
INSERT
8
0
2
RPAD
10
-1.108000
20
-0.197000
41
0.085000
42
0.080000
50
180.000000
0
INSERT
8
0
2
RPAD
10
-1.108000
20
0.002000
41
0.085000
42
0.080000
50
180.000000
0
INSERT
8
0
2
RPAD
10
-1.108000
20
0.202000
41
0.085000
42
0.080000
50
180.000000
0
INSERT
8
0
2
RPAD
10
-1.538000
20
-0.397000
41
0.085000
42
0.080000
50
180.000000
0
INSERT
8
0
2
RPAD
10
-1.538000
20
-0.197000
41
0.085000
42
0.080000
50
180.000000
0
INSERT
8
0
2
RPAD
10
-1.538000
20
0.002000
41
0.085000
42
0.080000
50
180.000000
0
INSERT
8
0
2
RPAD
10
-1.538000
20
0.202000
41
0.085000
42
0.080000
50
180.000000
0
INSERT
8
0
2
RPAD
10
-1.326000
20
-1.801000
41
0.085000
42
0.080000
50
90.000000
0
INSERT
8
0
2
RPAD
10
-1.126000
20
-1.801000
41
0.085000
42
0.080000
50
90.000000
0
INSERT
8
0
2
RPAD
10
-0.926000
20
-1.801000
41
0.085000
42
0.080000
50
90.000000
0
INSERT
8
0
2
RPAD
10
-0.726000
20
-1.801000
41
0.085000
42
0.080000
50
90.000000
0
INSERT
8
0
2
RPAD
10
-1.326000
20
-1.371000
41
0.085000
42
0.080000
50
90.000000
0
INSERT
8
0
2
RPAD
10
-1.126000
20
-1.371000
41
0.085000
42
0.080000
50
90.000000
0
INSERT
8
0
2
RPAD
10
-0.926000
20
-1.371000
41
0.085000
42
0.080000
50
90.000000
0
INSERT
8
0
2
RPAD
10
-0.726000
20
-1.371000
41
0.085000
42
0.080000
50
90.000000
0
INSERT
8
0
2
RPAD
10
-0.461000
20
-1.596000
41
0.055000
42
0.060000
50
90.000000
0
INSERT
8
0
2
RPAD
10
-0.461000
20
-1.517000
41
0.055000
42
0.060000
50
90.000000
0
INSERT
8
0
2
RPAD
10
-0.389000
20
-1.517000
41
0.055000
42
0.060000
50
90.000000
0
INSERT
8
0
2
RPAD
10
-0.389000
20
-1.588000
41
0.060000
42
0.070000
50
180.000000
0
INSERT
8
0
2
RPAD
10
-0.129000
20
-1.710000
41
0.060000
42
0.070000
50
90.000000
0
INSERT
8
0
2
RPAD
10
-0.129000
20
-1.626000
41
0.060000
42
0.070000
50
90.000000
0
INSERT
8
0
2
RPAD
10
-0.700000
20
-1.187000
41
0.085000
42
0.080000
50
180.000000
0
INSERT
8
0
2
RPAD
10
-0.700000
20
-0.987000
41
0.085000
42
0.080000
50
180.000000
0
INSERT
8
0
2
RPAD
10
-0.700000
20
-0.787000
41
0.085000
42
0.080000
50
180.000000
0
INSERT
8
0
2
RPAD
10
-0.700000
20
-0.587000
41
0.085000
42
0.080000
50
180.000000
0
INSERT
8
0
2
RPAD
10
-1.130000
20
-1.187000
41
0.085000
42
0.080000
50
180.000000
0
INSERT
8
0
2
RPAD
10
-1.130000
20
-0.987000
41
0.085000
42
0.080000
50
180.000000
0
INSERT
8
0
2
RPAD
10
-1.130000
20
-0.787000
41
0.085000
42
0.080000
50
180.000000
0
INSERT
8
0
2
RPAD
10
-1.130000
20
-0.587000
41
0.085000
42
0.080000
50
180.000000
0
INSERT
8
0
2
RPAD
10
-0.554000
20
-1.376000
41
0.060000
42
0.070000
50
0.000000
0
INSERT
8
0
2
RPAD
10
-0.470000
20
-1.376000
41
0.060000
42
0.070000
50
0.000000
0
INSERT
8
0
2
RPAD
10
-0.554000
20
-1.443000
41
0.060000
42
0.070000
50
0.000000
0
INSERT
8
0
2
RPAD
10
-0.470000
20
-1.443000
41
0.060000
42
0.070000
50
0.000000
0
INSERT
8
0
2
RPAD
10
-0.554000
20
-1.309000
41
0.060000
42
0.070000
50
0.000000
0
INSERT
8
0
2
RPAD
10
-0.470000
20
-1.309000
41
0.060000
42
0.070000
50
0.000000
0
INSERT
8
0
2
RPAD
10
-0.402000
20
-1.663000
41
0.060000
42
0.070000
50
0.000000
0
INSERT
8
0
2
RPAD
10
-0.318000
20
-1.663000
41
0.060000
42
0.070000
50
0.000000
0
INSERT
8
0
2
RPAD
10
-0.544000
20
-1.663000
41
0.060000
42
0.070000
50
0.000000
0
INSERT
8
0
2
RPAD
10
-0.460000
20
-1.663000
41
0.060000
42
0.070000
50
0.000000
0
INSERT
8
0
2
RPAD
10
-0.361000
20
-1.384000
41
0.060000
42
0.120000
50
90.000000
0
INSERT
8
0
2
RPAD
10
-0.361000
20
-1.260000
41
0.060000
42
0.120000
50
90.000000
0
INSERT
8
0
2
RPAD
10
-0.330000
20
-1.523000
41
0.060000
42
0.070000
50
90.000000
0
INSERT
8
0
2
RPAD
10
-0.330000
20
-1.439000
41
0.060000
42
0.070000
50
90.000000
0
INSERT
8
0
2
RPAD
10
-0.554000
20
-1.198000
41
0.060000
42
0.070000
50
0.000000
0
INSERT
8
0
2
RPAD
10
-0.470000
20
-1.198000
41
0.060000
42
0.070000
50
0.000000
0
INSERT
8
0
2
RPAD
10
-0.412000
20
-1.198000
41
0.060000
42
0.070000
50
0.000000
0
INSERT
8
0
2
RPAD
10
-0.328000
20
-1.198000
41
0.060000
42
0.070000
50
0.000000
0
INSERT
8
0
2
RPAD
10
-0.554000
20
-1.084000
41
0.060000
42
0.070000
50
0.000000
0
INSERT
8
0
2
RPAD
10
-0.470000
20
-1.084000
41
0.060000
42
0.070000
50
0.000000
0
INSERT
8
0
2
RPAD
10
-0.554000
20
-1.017000
41
0.060000
42
0.070000
50
0.000000
0
INSERT
8
0
2
RPAD
10
-0.470000
20
-1.017000
41
0.060000
42
0.070000
50
0.000000
0
INSERT
8
0
2
RPAD
10
-0.499000
20
-0.725000
41
0.100000
42
0.170000
50
270.000000
0
INSERT
8
0
2
RPAD
10
-0.499000
20
-0.911000
41
0.100000
42
0.170000
50
270.000000
0
INSERT
8
0
2
RPAD
10
-1.435000
20
0.789000
41
0.050000
42
0.070000
50
-180.000000
0
INSERT
8
0
2
RPAD
10
-1.495000
20
0.789000
41
0.050000
42
0.070000
50
-180.000000
0
INSERT
8
0
2
RPAD
10
-1.555000
20
0.789000
41
0.050000
42
0.070000
50
-180.000000
0
INSERT
8
0
2
RPAD
10
-1.555000
20
0.909000
41
0.050000
42
0.070000
50
-180.000000
0
INSERT
8
0
2
RPAD
10
-1.435000
20
0.909000
41
0.050000
42
0.070000
50
-180.000000
0
INSERT
8
0
2
RPAD
10
-1.550000
20
0.690000
41
0.060000
42
0.070000
50
0.000000
0
INSERT
8
0
2
RPAD
10
-1.466000
20
0.690000
41
0.060000
42
0.070000
50
0.000000
0
INSERT
8
0
2
RPAD
10
-1.405000
20
0.646000
41
0.060000
42
0.070000
50
90.000000
0
INSERT
8
0
2
RPAD
10
-1.405000
20
0.730000
41
0.060000
42
0.070000
50
90.000000
0
INSERT
8
0
2
RPAD
10
-1.263000
20
0.759000
41
0.029000
42
0.046000
50
-90.000000
0
INSERT
8
0
2
RPAD
10
-1.263000
20
0.739000
41
0.029000
42
0.046000
50
-90.000000
0
INSERT
8
0
2
RPAD
10
-1.263000
20
0.720000
41
0.029000
42
0.046000
50
-90.000000
0
INSERT
8
0
2
RPAD
10
-1.263000
20
0.700000
41
0.029000
42
0.046000
50
-90.000000
0
INSERT
8
0
2
RPAD
10
-1.152000
20
0.700000
41
0.029000
42
0.046000
50
-90.000000
0
INSERT
8
0
2
RPAD
10
-1.152000
20
0.720000
41
0.029000
42
0.046000
50
-90.000000
0
INSERT
8
0
2
RPAD
10
-1.152000
20
0.739000
41
0.029000
42
0.046000
50
-90.000000
0
INSERT
8
0
2
RPAD
10
-1.152000
20
0.759000
41
0.029000
42
0.046000
50
-90.000000
0
INSERT
8
0
2
RPAD
10
-1.208000
20
0.730000
41
0.113000
42
0.086000
50
-90.000000
0
INSERT
8
0
2
RPAD
10
-1.353000
20
0.722000
41
0.040000
42
0.050000
50
0.000000
0
INSERT
8
0
2
RPAD
10
-1.317000
20
0.722000
41
0.040000
42
0.050000
50
0.000000
0
INSERT
8
0
2
RPAD
10
-1.353000
20
0.675000
41
0.040000
42
0.050000
50
0.000000
0
INSERT
8
0
2
RPAD
10
-1.317000
20
0.675000
41
0.040000
42
0.050000
50
0.000000
0
INSERT
8
0
2
RPAD
10
-1.318000
20
0.827000
41
0.060000
42
0.070000
50
90.000000
0
INSERT
8
0
2
RPAD
10
-1.318000
20
0.911000
41
0.060000
42
0.070000
50
90.000000
0
INSERT
8
0
2
RPAD
10
-1.078000
20
0.651000
41
0.060000
42
0.070000
50
0.000000
0
INSERT
8
0
2
RPAD
10
-0.994000
20
0.651000
41
0.060000
42
0.070000
50
0.000000
0
INSERT
8
0
2
RPAD
10
-1.078000
20
0.718000
41
0.060000
42
0.070000
50
0.000000
0
INSERT
8
0
2
RPAD
10
-0.994000
20
0.718000
41
0.060000
42
0.070000
50
0.000000
0
INSERT
8
0
2
RPAD
10
-0.946000
20
0.785000
41
0.050000
42
0.070000
50
180.000000
0
INSERT
8
0
2
RPAD
10
-1.006000
20
0.785000
41
0.050000
42
0.070000
50
180.000000
0
INSERT
8
0
2
RPAD
10
-1.066000
20
0.785000
41
0.050000
42
0.070000
50
180.000000
0
INSERT
8
0
2
RPAD
10
-1.066000
20
0.905000
41
0.050000
42
0.070000
50
180.000000
0
INSERT
8
0
2
RPAD
10
-0.946000
20
0.905000
41
0.050000
42
0.070000
50
180.000000
0
INSERT
8
0
2
RPAD
10
-1.231000
20
0.907000
41
0.060000
42
0.070000
50
0.000000
0
INSERT
8
0
2
RPAD
10
-1.147000
20
0.907000
41
0.060000
42
0.070000
50
0.000000
0
INSERT
8
0
2
RPAD
10
-1.231000
20
0.844000
41
0.060000
42
0.070000
50
0.000000
0
INSERT
8
0
2
RPAD
10
-1.147000
20
0.844000
41
0.060000
42
0.070000
50
0.000000
0
INSERT
8
0
2
RPAD
10
-0.739000
20
0.581000
41
0.060000
42
0.120000
50
90.000000
0
INSERT
8
0
2
RPAD
10
-0.739000
20
0.671000
41
0.060000
42
0.120000
50
90.000000
0
INSERT
8
0
2
RPAD
10
-0.739000
20
0.441000
41
0.060000
42
0.070000
50
90.000000
0
INSERT
8
0
2
RPAD
10
-0.739000
20
0.525000
41
0.060000
42
0.070000
50
90.000000
0
INSERT
8
0
2
RPAD
10
-0.031000
20
0.552000
41
0.060000
42
0.120000
50
90.000000
0
INSERT
8
0
2
RPAD
10
-0.031000
20
0.642000
41
0.060000
42
0.120000
50
90.000000
0
INSERT
8
0
2
RPAD
10
-0.054000
20
0.413000
41
0.060000
42
0.070000
50
90.000000
0
INSERT
8
0
2
RPAD
10
-0.054000
20
0.497000
41
0.060000
42
0.070000
50
90.000000
0
INSERT
8
0
2
RPAD
10
-0.547000
20
0.640000
41
0.094000
42
0.054000
50
90.000000
0
INSERT
8
0
2
RPAD
10
-0.637000
20
0.584000
41
0.094000
42
0.054000
50
180.000000
0
INSERT
8
0
2
RPAD
10
-0.637000
20
0.484000
41
0.094000
42
0.054000
50
180.000000
0
INSERT
8
0
2
RPAD
10
-0.547000
20
0.428000
41
0.094000
42
0.054000
50
90.000000
0
INSERT
8
0
2
RPAD
10
-0.447000
20
0.428000
41
0.094000
42
0.054000
50
90.000000
0
INSERT
8
0
2
RPAD
10
-0.347000
20
0.428000
41
0.094000
42
0.054000
50
90.000000
0
INSERT
8
0
2
RPAD
10
-0.247000
20
0.428000
41
0.094000
42
0.054000
50
90.000000
0
INSERT
8
0
2
RPAD
10
-0.157000
20
0.484000
41
0.094000
42
0.054000
50
180.000000
0
INSERT
8
0
2
RPAD
10
-0.157000
20
0.584000
41
0.094000
42
0.054000
50
180.000000
0
INSERT
8
0
2
RPAD
10
-0.247000
20
0.640000
41
0.094000
42
0.054000
50
90.000000
0
INSERT
8
0
2
RPAD
10
-0.347000
20
0.640000
41
0.094000
42
0.054000
50
90.000000
0
INSERT
8
0
2
RPAD
10
-0.447000
20
0.640000
41
0.094000
42
0.054000
50
90.000000
0
INSERT
8
0
2
RPAD
10
-1.334000
20
1.402000
41
0.060000
42
0.070000
50
90.000000
0
INSERT
8
0
2
RPAD
10
-1.334000
20
1.486000
41
0.060000
42
0.070000
50
90.000000
0
INSERT
8
0
2
RPAD
10
-1.657000
20
1.552000
41
0.060000
42
0.070000
50
0.000000
0
INSERT
8
0
2
RPAD
10
-1.573000
20
1.552000
41
0.060000
42
0.070000
50
0.000000
0
INSERT
8
0
2
RPAD
10
0.287000
20
-0.533000
41
0.085000
42
0.140000
50
0.000000
0
INSERT
8
0
2
RPAD
10
0.169000
20
-0.533000
41
0.085000
42
0.140000
50
0.000000
0
INSERT
8
0
2
RPAD
10
0.445000
20
-0.786000
41
0.060000
42
0.070000
50
90.000000
0
INSERT
8
0
2
RPAD
10
0.445000
20
-0.702000
41
0.060000
42
0.070000
50
90.000000
0
INSERT
8
0
2
RPAD
10
0.358000
20
-0.649000
41
0.060000
42
0.070000
50
90.000000
0
INSERT
8
0
2
RPAD
10
0.358000
20
-0.565000
41
0.060000
42
0.070000
50
90.000000
0
INSERT
8
0
2
RPAD
10
0.358000
20
-0.786000
41
0.060000
42
0.070000
50
90.000000
0
INSERT
8
0
2
RPAD
10
0.358000
20
-0.702000
41
0.060000
42
0.070000
50
90.000000
0
INSERT
8
0
2
RPAD
10
-1.570000
20
-0.723000
41
0.055000
42
0.060000
50
180.000000
0
INSERT
8
0
2
RPAD
10
-1.649000
20
-0.723000
41
0.055000
42
0.060000
50
180.000000
0
INSERT
8
0
2
RPAD
10
-1.649000
20
-0.651000
41
0.055000
42
0.060000
50
180.000000
0
INSERT
8
0
2
RPAD
10
-1.578000
20
-0.651000
41
0.060000
42
0.070000
50
270.000000
0
INSERT
8
0
2
RPAD
10
-1.660000
20
-0.860000
41
0.060000
42
0.070000
50
90.000000
0
INSERT
8
0
2
RPAD
10
-1.660000
20
-0.776000
41
0.060000
42
0.070000
50
90.000000
0
INSERT
8
0
2
RPAD
10
-1.570000
20
-0.817000
41
0.060000
42
0.070000
50
0.000000
0
INSERT
8
0
2
RPAD
10
-1.486000
20
-0.817000
41
0.060000
42
0.070000
50
0.000000
0
INSERT
8
0
2
RPAD
10
-1.570000
20
-0.884000
41
0.060000
42
0.070000
50
0.000000
0
INSERT
8
0
2
RPAD
10
-1.486000
20
-0.884000
41
0.060000
42
0.070000
50
0.000000
0
INSERT
8
0
2
RPAD
10
-1.491000
20
-0.702000
41
0.060000
42
0.070000
50
90.000000
0
INSERT
8
0
2
RPAD
10
-1.491000
20
-0.618000
41
0.060000
42
0.070000
50
90.000000
0
INSERT
8
0
2
RPAD
10
-1.267000
20
-0.727000
41
0.055000
42
0.060000
50
180.000000
0
INSERT
8
0
2
RPAD
10
-1.346000
20
-0.727000
41
0.055000
42
0.060000
50
180.000000
0
INSERT
8
0
2
RPAD
10
-1.346000
20
-0.655000
41
0.055000
42
0.060000
50
180.000000
0
INSERT
8
0
2
RPAD
10
-1.275000
20
-0.655000
41
0.060000
42
0.070000
50
270.000000
0
INSERT
8
0
2
RPAD
10
-1.267000
20
-0.884000
41
0.060000
42
0.070000
50
180.000000
0
INSERT
8
0
2
RPAD
10
-1.351000
20
-0.884000
41
0.060000
42
0.070000
50
180.000000
0
INSERT
8
0
2
RPAD
10
-1.267000
20
-0.817000
41
0.060000
42
0.070000
50
180.000000
0
INSERT
8
0
2
RPAD
10
-1.351000
20
-0.817000
41
0.060000
42
0.070000
50
180.000000
0
INSERT
8
0
2
RPAD
10
-1.347000
20
-0.576000
41
0.060000
42
0.070000
50
0.000000
0
INSERT
8
0
2
RPAD
10
-1.263000
20
-0.576000
41
0.060000
42
0.070000
50
0.000000
0
INSERT
8
0
2
RPAD
10
-0.644000
20
1.086000
41
0.052000
42
0.077000
50
-90.000000
0
INSERT
8
0
2
RPAD
10
-0.644000
20
1.036000
41
0.052000
42
0.077000
50
-90.000000
0
INSERT
8
0
2
RPAD
10
-0.644000
20
0.986000
41
0.052000
42
0.077000
50
-90.000000
0
INSERT
8
0
2
RPAD
10
-0.779000
20
0.986000
41
0.052000
42
0.077000
50
-90.000000
0
INSERT
8
0
2
RPAD
10
-0.779000
20
1.086000
41
0.052000
42
0.077000
50
-90.000000
0
INSERT
8
0
2
RPAD
10
-0.578000
20
1.080000
41
0.060000
42
0.070000
50
0.000000
0
INSERT
8
0
2
RPAD
10
-0.494000
20
1.080000
41
0.060000
42
0.070000
50
0.000000
0
INSERT
8
0
2
RPAD
10
-0.408000
20
1.086000
41
0.046000
42
0.031000
50
0.000000
0
INSERT
8
0
2
RPAD
10
-0.408000
20
1.066000
41
0.046000
42
0.031000
50
0.000000
0
INSERT
8
0
2
RPAD
10
-0.408000
20
1.047000
41
0.046000
42
0.031000
50
0.000000
0
INSERT
8
0
2
RPAD
10
-0.408000
20
1.027000
41
0.046000
42
0.031000
50
0.000000
0
INSERT
8
0
2
RPAD
10
-0.408000
20
1.007000
41
0.046000
42
0.031000
50
0.000000
0
INSERT
8
0
2
RPAD
10
-0.408000
20
0.988000
41
0.046000
42
0.031000
50
0.000000
0
INSERT
8
0
2
RPAD
10
-0.383000
20
0.962000
41
0.046000
42
0.031000
50
90.000000
0
INSERT
8
0
2
RPAD
10
-0.363000
20
0.962000
41
0.046000
42
0.031000
50
90.000000
0
INSERT
8
0
2
RPAD
10
-0.344000
20
0.962000
41
0.046000
42
0.031000
50
90.000000
0
INSERT
8
0
2
RPAD
10
-0.324000
20
0.962000
41
0.046000
42
0.031000
50
90.000000
0
INSERT
8
0
2
RPAD
10
-0.304000
20
0.962000
41
0.046000
42
0.031000
50
90.000000
0
INSERT
8
0
2
RPAD
10
-0.284000
20
0.962000
41
0.046000
42
0.031000
50
90.000000
0
INSERT
8
0
2
RPAD
10
-0.259000
20
0.988000
41
0.046000
42
0.031000
50
0.000000
0
INSERT
8
0
2
RPAD
10
-0.259000
20
1.007000
41
0.046000
42
0.031000
50
0.000000
0
INSERT
8
0
2
RPAD
10
-0.259000
20
1.027000
41
0.046000
42
0.031000
50
0.000000
0
INSERT
8
0
2
RPAD
10
-0.259000
20
1.047000
41
0.046000
42
0.031000
50
0.000000
0
INSERT
8
0
2
RPAD
10
-0.259000
20
1.066000
41
0.046000
42
0.031000
50
0.000000
0
INSERT
8
0
2
RPAD
10
-0.259000
20
1.086000
41
0.046000
42
0.031000
50
0.000000
0
INSERT
8
0
2
RPAD
10
-0.284000
20
1.112000
41
0.046000
42
0.031000
50
90.000000
0
INSERT
8
0
2
RPAD
10
-0.304000
20
1.112000
41
0.046000
42
0.031000
50
90.000000
0
INSERT
8
0
2
RPAD
10
-0.324000
20
1.112000
41
0.046000
42
0.031000
50
90.000000
0
INSERT
8
0
2
RPAD
10
-0.344000
20
1.112000
41
0.046000
42
0.031000
50
90.000000
0
INSERT
8
0
2
RPAD
10
-0.363000
20
1.112000
41
0.046000
42
0.031000
50
90.000000
0
INSERT
8
0
2
RPAD
10
-0.383000
20
1.112000
41
0.046000
42
0.031000
50
90.000000
0
INSERT
8
0
2
RPAD
10
-0.334000
20
1.037000
41
0.116000
42
0.116000
50
0.000000
0
INSERT
8
0
2
RPAD
10
-0.578000
20
0.993000
41
0.060000
42
0.070000
50
0.000000
0
INSERT
8
0
2
RPAD
10
-0.494000
20
0.993000
41
0.060000
42
0.070000
50
0.000000
0
INSERT
8
0
2
RPAD
10
-0.578000
20
0.927000
41
0.060000
42
0.070000
50
0.000000
0
INSERT
8
0
2
RPAD
10
-0.494000
20
0.927000
41
0.060000
42
0.070000
50
0.000000
0
INSERT
8
0
2
RPAD
10
-0.578000
20
0.860000
41
0.060000
42
0.070000
50
0.000000
0
INSERT
8
0
2
RPAD
10
-0.494000
20
0.860000
41
0.060000
42
0.070000
50
0.000000
0
INSERT
8
0
2
RPAD
10
-0.578000
20
1.147000
41
0.060000
42
0.070000
50
0.000000
0
INSERT
8
0
2
RPAD
10
-0.494000
20
1.147000
41
0.060000
42
0.070000
50
0.000000
0
INSERT
8
0
2
RPAD
10
-0.578000
20
1.210000
41
0.060000
42
0.070000
50
0.000000
0
INSERT
8
0
2
RPAD
10
-0.494000
20
1.210000
41
0.060000
42
0.070000
50
0.000000
0
INSERT
8
0
2
RPAD
10
-0.290000
20
1.178000
41
0.060000
42
0.070000
50
0.000000
0
INSERT
8
0
2
RPAD
10
-0.206000
20
1.178000
41
0.060000
42
0.070000
50
0.000000
0
INSERT
8
0
2
RPAD
10
-0.290000
20
1.241000
41
0.060000
42
0.070000
50
0.000000
0
INSERT
8
0
2
RPAD
10
-0.206000
20
1.241000
41
0.060000
42
0.070000
50
0.000000
0
INSERT
8
0
2
RPAD
10
-0.381000
20
1.163000
41
0.060000
42
0.070000
50
90.000000
0
INSERT
8
0
2
RPAD
10
-0.381000
20
1.247000
41
0.060000
42
0.070000
50
90.000000
0
INSERT
8
0
2
RPAD
10
-0.310000
20
0.887000
41
0.060000
42
0.070000
50
-90.000000
0
INSERT
8
0
2
RPAD
10
-0.310000
20
0.803000
41
0.060000
42
0.070000
50
-90.000000
0
INSERT
8
0
2
RPAD
10
-0.578000
20
0.793000
41
0.060000
42
0.070000
50
0.000000
0
INSERT
8
0
2
RPAD
10
-0.494000
20
0.793000
41
0.060000
42
0.070000
50
0.000000
0
INSERT
8
0
2
RPAD
10
-0.377000
20
0.887000
41
0.060000
42
0.070000
50
-90.000000
0
INSERT
8
0
2
RPAD
10
-0.377000
20
0.803000
41
0.060000
42
0.070000
50
-90.000000
0
INSERT
8
0
2
RPAD
10
-0.204000
20
0.887000
41
0.060000
42
0.070000
50
-90.000000
0
INSERT
8
0
2
RPAD
10
-0.204000
20
0.803000
41
0.060000
42
0.070000
50
-90.000000
0
INSERT
8
0
2
RPAD
10
-0.137000
20
0.887000
41
0.060000
42
0.070000
50
-90.000000
0
INSERT
8
0
2
RPAD
10
-0.137000
20
0.803000
41
0.060000
42
0.070000
50
-90.000000
0
INSERT
8
0
2
RPAD
10
-0.137000
20
1.026000
41
0.060000
42
0.070000
50
270.000000
0
INSERT
8
0
2
RPAD
10
-0.137000
20
0.942000
41
0.060000
42
0.070000
50
270.000000
0
INSERT
8
0
2
RPAD
10
-0.125000
20
1.168000
41
0.060000
42
0.070000
50
-90.000000
0
INSERT
8
0
2
RPAD
10
-0.125000
20
1.084000
41
0.060000
42
0.070000
50
-90.000000
0
INSERT
8
0
2
RPAD
10
-0.042000
20
0.797000
41
0.052000
42
0.077000
50
90.000000
0
INSERT
8
0
2
RPAD
10
-0.042000
20
0.847000
41
0.052000
42
0.077000
50
90.000000
0
INSERT
8
0
2
RPAD
10
-0.042000
20
0.897000
41
0.052000
42
0.077000
50
90.000000
0
INSERT
8
0
2
RPAD
10
0.092000
20
0.897000
41
0.052000
42
0.077000
50
90.000000
0
INSERT
8
0
2
RPAD
10
0.092000
20
0.797000
41
0.052000
42
0.077000
50
90.000000
0
INSERT
8
0
2
RPAD
10
-0.046000
20
1.056000
41
0.060000
42
0.070000
50
-90.000000
0
INSERT
8
0
2
RPAD
10
-0.046000
20
0.972000
41
0.060000
42
0.070000
50
-90.000000
0
INSERT
8
0
2
RPAD
10
0.020000
20
1.056000
41
0.060000
42
0.070000
50
-90.000000
0
INSERT
8
0
2
RPAD
10
0.020000
20
0.972000
41
0.060000
42
0.070000
50
-90.000000
0
INSERT
8
0
2
RPAD
10
0.215000
20
1.167000
41
0.046000
42
0.031000
50
-90.000000
0
INSERT
8
0
2
RPAD
10
0.195000
20
1.167000
41
0.046000
42
0.031000
50
-90.000000
0
INSERT
8
0
2
RPAD
10
0.175000
20
1.167000
41
0.046000
42
0.031000
50
-90.000000
0
INSERT
8
0
2
RPAD
10
0.155000
20
1.167000
41
0.046000
42
0.031000
50
-90.000000
0
INSERT
8
0
2
RPAD
10
0.155000
20
1.095000
41
0.046000
42
0.031000
50
-90.000000
0
INSERT
8
0
2
RPAD
10
0.175000
20
1.095000
41
0.046000
42
0.031000
50
-90.000000
0
INSERT
8
0
2
RPAD
10
0.195000
20
1.095000
41
0.046000
42
0.031000
50
-90.000000
0
INSERT
8
0
2
RPAD
10
0.215000
20
1.095000
41
0.046000
42
0.031000
50
-90.000000
0
INSERT
8
0
2
RPAD
10
0.185000
20
1.131000
41
0.094000
42
0.043000
50
-180.000000
0
INSERT
8
0
2
RPAD
10
0.672000
20
1.032000
41
0.085000
42
0.120000
50
180.000000
0
INSERT
8
0
2
RPAD
10
0.572000
20
1.032000
41
0.085000
42
0.120000
50
180.000000
0
INSERT
8
0
2
RPAD
10
0.472000
20
1.032000
41
0.085000
42
0.120000
50
180.000000
0
INSERT
8
0
2
RPAD
10
0.472000
20
0.832000
41
0.085000
42
0.120000
50
180.000000
0
INSERT
8
0
2
RPAD
10
0.572000
20
0.832000
41
0.085000
42
0.120000
50
180.000000
0
INSERT
8
0
2
RPAD
10
0.672000
20
0.832000
41
0.085000
42
0.120000
50
180.000000
0
INSERT
8
0
2
RPAD
10
-0.038000
20
1.245000
41
0.060000
42
0.070000
50
-90.000000
0
INSERT
8
0
2
RPAD
10
-0.038000
20
1.161000
41
0.060000
42
0.070000
50
-90.000000
0
INSERT
8
0
2
RPAD
10
0.028000
20
1.245000
41
0.060000
42
0.070000
50
-90.000000
0
INSERT
8
0
2
RPAD
10
0.028000
20
1.161000
41
0.060000
42
0.070000
50
-90.000000
0
INSERT
8
0
2
RPAD
10
0.272000
20
1.241000
41
0.060000
42
0.070000
50
0.000000
0
INSERT
8
0
2
RPAD
10
0.356000
20
1.241000
41
0.060000
42
0.070000
50
0.000000
0
INSERT
8
0
2
RPAD
10
0.102000
20
1.005000
41
0.060000
42
0.070000
50
0.000000
0
INSERT
8
0
2
RPAD
10
0.186000
20
1.005000
41
0.060000
42
0.070000
50
0.000000
0
INSERT
8
0
2
RPAD
10
0.373000
20
0.941000
41
0.060000
42
0.070000
50
-90.000000
0
INSERT
8
0
2
RPAD
10
0.373000
20
0.857000
41
0.060000
42
0.070000
50
-90.000000
0
INSERT
8
0
2
RPAD
10
0.307000
20
1.104000
41
0.060000
42
0.070000
50
0.000000
0
INSERT
8
0
2
RPAD
10
0.391000
20
1.104000
41
0.060000
42
0.070000
50
0.000000
0
INSERT
8
0
2
RPAD
10
0.272000
20
1.042000
41
0.060000
42
0.070000
50
-90.000000
0
INSERT
8
0
2
RPAD
10
0.272000
20
0.958000
41
0.060000
42
0.070000
50
-90.000000
0
INSERT
8
0
2
RPAD
10
0.520000
20
1.171000
41
0.060000
42
0.070000
50
0.000000
0
INSERT
8
0
2
RPAD
10
0.604000
20
1.171000
41
0.060000
42
0.070000
50
0.000000
0
INSERT
8
0
2
RPAD
10
0.436000
20
1.241000
41
0.060000
42
0.070000
50
0.000000
0
INSERT
8
0
2
RPAD
10
0.520000
20
1.241000
41
0.060000
42
0.070000
50
0.000000
0
INSERT
8
0
2
RPAD
10
0.110000
20
1.241000
41
0.060000
42
0.070000
50
0.000000
0
INSERT
8
0
2
RPAD
10
0.194000
20
1.241000
41
0.060000
42
0.070000
50
0.000000
0
INSERT
8
0
2
RPAD
10
0.339000
20
0.556000
41
0.050000
42
0.070000
50
-180.000000
0
INSERT
8
0
2
RPAD
10
0.279000
20
0.556000
41
0.050000
42
0.070000
50
-180.000000
0
INSERT
8
0
2
RPAD
10
0.219000
20
0.556000
41
0.050000
42
0.070000
50
-180.000000
0
INSERT
8
0
2
RPAD
10
0.219000
20
0.676000
41
0.050000
42
0.070000
50
-180.000000
0
INSERT
8
0
2
RPAD
10
0.339000
20
0.676000
41
0.050000
42
0.070000
50
-180.000000
0
INSERT
8
0
2
RPAD
10
0.224000
20
0.458000
41
0.060000
42
0.070000
50
0.000000
0
INSERT
8
0
2
RPAD
10
0.308000
20
0.458000
41
0.060000
42
0.070000
50
0.000000
0
INSERT
8
0
2
RPAD
10
0.369000
20
0.413000
41
0.060000
42
0.070000
50
90.000000
0
INSERT
8
0
2
RPAD
10
0.369000
20
0.497000
41
0.060000
42
0.070000
50
90.000000
0
INSERT
8
0
2
RPAD
10
0.510000
20
0.527000
41
0.029000
42
0.046000
50
-90.000000
0
INSERT
8
0
2
RPAD
10
0.510000
20
0.507000
41
0.029000
42
0.046000
50
-90.000000
0
INSERT
8
0
2
RPAD
10
0.510000
20
0.487000
41
0.029000
42
0.046000
50
-90.000000
0
INSERT
8
0
2
RPAD
10
0.510000
20
0.468000
41
0.029000
42
0.046000
50
-90.000000
0
INSERT
8
0
2
RPAD
10
0.622000
20
0.468000
41
0.029000
42
0.046000
50
-90.000000
0
INSERT
8
0
2
RPAD
10
0.622000
20
0.487000
41
0.029000
42
0.046000
50
-90.000000
0
INSERT
8
0
2
RPAD
10
0.622000
20
0.507000
41
0.029000
42
0.046000
50
-90.000000
0
INSERT
8
0
2
RPAD
10
0.622000
20
0.527000
41
0.029000
42
0.046000
50
-90.000000
0
INSERT
8
0
2
RPAD
10
0.566000
20
0.497000
41
0.113000
42
0.086000
50
-90.000000
0
INSERT
8
0
2
RPAD
10
0.421000
20
0.489000
41
0.040000
42
0.050000
50
0.000000
0
INSERT
8
0
2
RPAD
10
0.457000
20
0.489000
41
0.040000
42
0.050000
50
0.000000
0
INSERT
8
0
2
RPAD
10
0.421000
20
0.442000
41
0.040000
42
0.050000
50
0.000000
0
INSERT
8
0
2
RPAD
10
0.457000
20
0.442000
41
0.040000
42
0.050000
50
0.000000
0
INSERT
8
0
2
RPAD
10
0.456000
20
0.594000
41
0.060000
42
0.070000
50
90.000000
0
INSERT
8
0
2
RPAD
10
0.456000
20
0.678000
41
0.060000
42
0.070000
50
90.000000
0
INSERT
8
0
2
RPAD
10
0.680000
20
0.438000
41
0.040000
42
0.050000
50
0.000000
0
INSERT
8
0
2
RPAD
10
0.716000
20
0.438000
41
0.040000
42
0.050000
50
0.000000
0
INSERT
8
0
2
RPAD
10
0.680000
20
0.486000
41
0.040000
42
0.050000
50
0.000000
0
INSERT
8
0
2
RPAD
10
0.716000
20
0.486000
41
0.040000
42
0.050000
50
0.000000
0
INSERT
8
0
2
RPAD
10
0.828000
20
0.552000
41
0.050000
42
0.070000
50
180.000000
0
INSERT
8
0
2
RPAD
10
0.768000
20
0.552000
41
0.050000
42
0.070000
50
180.000000
0
INSERT
8
0
2
RPAD
10
0.708000
20
0.552000
41
0.050000
42
0.070000
50
180.000000
0
INSERT
8
0
2
RPAD
10
0.708000
20
0.672000
41
0.050000
42
0.070000
50
180.000000
0
INSERT
8
0
2
RPAD
10
0.828000
20
0.672000
41
0.050000
42
0.070000
50
180.000000
0
INSERT
8
0
2
RPAD
10
0.543000
20
0.674000
41
0.060000
42
0.070000
50
0.000000
0
INSERT
8
0
2
RPAD
10
0.627000
20
0.674000
41
0.060000
42
0.070000
50
0.000000
0
INSERT
8
0
2
RPAD
10
0.543000
20
0.611000
41
0.060000
42
0.070000
50
0.000000
0
INSERT
8
0
2
RPAD
10
0.627000
20
0.611000
41
0.060000
42
0.070000
50
0.000000
0
INSERT
8
0
2
RPAD
10
0.909000
20
0.587000
41
0.060000
42
0.070000
50
90.000000
0
INSERT
8
0
2
RPAD
10
0.909000
20
0.671000
41
0.060000
42
0.070000
50
90.000000
0
INSERT
8
0
2
RPAD
10
-1.154000
20
1.042000
41
0.100000
42
0.170000
50
90.000000
0
INSERT
8
0
2
RPAD
10
-1.154000
20
1.228000
41
0.100000
42
0.170000
50
90.000000
0
INSERT
8
0
2
RPAD
10
-1.038000
20
1.104000
41
0.060000
42
0.070000
50
90.000000
0
INSERT
8
0
2
RPAD
10
-1.038000
20
1.188000
41
0.060000
42
0.070000
50
90.000000
0
INSERT
8
0
2
RPAD
10
-0.975000
20
1.104000
41
0.060000
42
0.070000
50
90.000000
0
INSERT
8
0
2
RPAD
10
-0.975000
20
1.188000
41
0.060000
42
0.070000
50
90.000000
0
INSERT
8
0
2
RPAD
10
1.086000
20
0.599000
41
0.043000
42
0.086000
50
180.000000
0
INSERT
8
0
2
RPAD
10
1.039000
20
0.616000
41
0.043000
42
0.051000
50
180.000000
0
INSERT
8
0
2
RPAD
10
0.992000
20
0.616000
41
0.043000
42
0.051000
50
180.000000
0
INSERT
8
0
2
RPAD
10
0.992000
20
0.514000
41
0.043000
42
0.051000
50
180.000000
0
INSERT
8
0
2
RPAD
10
1.039000
20
0.514000
41
0.043000
42
0.051000
50
180.000000
0
INSERT
8
0
2
RPAD
10
1.087000
20
0.514000
41
0.043000
42
0.051000
50
180.000000
0
INSERT
8
0
2
RPAD
10
0.197000
20
0.879000
41
0.060000
42
0.070000
50
-90.000000
0
INSERT
8
0
2
RPAD
10
0.197000
20
0.795000
41
0.060000
42
0.070000
50
-90.000000
0
INSERT
8
0
2
RPAD
10
0.272000
20
0.795000
41
0.060000
42
0.070000
50
90.000000
0
INSERT
8
0
2
RPAD
10
0.272000
20
0.879000
41
0.060000
42
0.070000
50
90.000000
0
INSERT
8
0
2
RPAD
10
1.579000
20
0.293000
41
0.085000
42
0.080000
50
270.000000
0
INSERT
8
0
2
RPAD
10
1.379000
20
0.293000
41
0.085000
42
0.080000
50
270.000000
0
INSERT
8
0
2
RPAD
10
1.179000
20
0.293000
41
0.085000
42
0.080000
50
270.000000
0
INSERT
8
0
2
RPAD
10
0.979000
20
0.293000
41
0.085000
42
0.080000
50
270.000000
0
INSERT
8
0
2
RPAD
10
1.579000
20
-0.136000
41
0.085000
42
0.080000
50
270.000000
0
INSERT
8
0
2
RPAD
10
1.379000
20
-0.136000
41
0.085000
42
0.080000
50
270.000000
0
INSERT
8
0
2
RPAD
10
1.179000
20
-0.136000
41
0.085000
42
0.080000
50
270.000000
0
INSERT
8
0
2
RPAD
10
0.979000
20
-0.136000
41
0.085000
42
0.080000
50
270.000000
0
INSERT
8
0
2
RPAD
10
-1.447000
20
0.435000
41
0.055000
42
0.060000
50
270.000000
0
INSERT
8
0
2
RPAD
10
-1.447000
20
0.356000
41
0.055000
42
0.060000
50
270.000000
0
INSERT
8
0
2
RPAD
10
-1.519000
20
0.356000
41
0.055000
42
0.060000
50
270.000000
0
INSERT
8
0
2
RPAD
10
-1.519000
20
0.427000
41
0.060000
42
0.070000
50
0.000000
0
INSERT
8
0
2
RPAD
10
-1.310000
20
0.344000
41
0.060000
42
0.070000
50
180.000000
0
INSERT
8
0
2
RPAD
10
-1.394000
20
0.344000
41
0.060000
42
0.070000
50
180.000000
0
INSERT
8
0
2
RPAD
10
-1.353000
20
0.434000
41
0.060000
42
0.070000
50
90.000000
0
INSERT
8
0
2
RPAD
10
-1.353000
20
0.518000
41
0.060000
42
0.070000
50
90.000000
0
INSERT
8
0
2
RPAD
10
-1.286000
20
0.434000
41
0.060000
42
0.070000
50
90.000000
0
INSERT
8
0
2
RPAD
10
-1.286000
20
0.518000
41
0.060000
42
0.070000
50
90.000000
0
INSERT
8
0
2
RPAD
10
-1.468000
20
0.513000
41
0.060000
42
0.070000
50
180.000000
0
INSERT
8
0
2
RPAD
10
-1.552000
20
0.513000
41
0.060000
42
0.070000
50
180.000000
0
INSERT
8
0
2
RPAD
10
1.332000
20
0.512000
41
0.034000
42
0.050000
50
-90.000000
0
INSERT
8
0
2
RPAD
10
1.332000
20
0.486000
41
0.034000
42
0.050000
50
-90.000000
0
INSERT
8
0
2
RPAD
10
1.332000
20
0.460000
41
0.034000
42
0.050000
50
-90.000000
0
INSERT
8
0
2
RPAD
10
1.397000
20
0.460000
41
0.034000
42
0.050000
50
-90.000000
0
INSERT
8
0
2
RPAD
10
1.397000
20
0.486000
41
0.034000
42
0.050000
50
-90.000000
0
INSERT
8
0
2
RPAD
10
1.397000
20
0.512000
41
0.034000
42
0.050000
50
-90.000000
0
INSERT
8
0
2
RPAD
10
1.000000
20
0.430000
41
0.060000
42
0.070000
50
0.000000
0
INSERT
8
0
2
RPAD
10
1.084000
20
0.430000
41
0.060000
42
0.070000
50
0.000000
0
INSERT
8
0
2
RPAD
10
1.161000
20
0.493000
41
0.060000
42
0.070000
50
90.000000
0
INSERT
8
0
2
RPAD
10
1.161000
20
0.577000
41
0.060000
42
0.070000
50
90.000000
0
INSERT
8
0
2
RPAD
10
1.138000
20
0.430000
41
0.060000
42
0.070000
50
0.000000
0
INSERT
8
0
2
RPAD
10
1.222000
20
0.430000
41
0.060000
42
0.070000
50
0.000000
0
INSERT
8
0
2
RPAD
10
1.236000
20
0.493000
41
0.060000
42
0.070000
50
90.000000
0
INSERT
8
0
2
RPAD
10
1.236000
20
0.577000
41
0.060000
42
0.070000
50
90.000000
0
INSERT
8
0
2
RPAD
10
1.465000
20
0.552000
41
0.060000
42
0.070000
50
90.000000
0
INSERT
8
0
2
RPAD
10
1.465000
20
0.636000
41
0.060000
42
0.070000
50
90.000000
0
INSERT
8
0
2
RPAD
10
1.319000
20
0.584000
41
0.060000
42
0.070000
50
0.000000
0
INSERT
8
0
2
RPAD
10
1.403000
20
0.584000
41
0.060000
42
0.070000
50
0.000000
0
INSERT
8
0
2
RPAD
10
1.579000
20
0.584000
41
0.060000
42
0.070000
50
270.000000
0
INSERT
8
0
2
RPAD
10
1.579000
20
0.500000
41
0.060000
42
0.070000
50
270.000000
0
INSERT
8
0
2
RPAD
10
1.524000
20
0.671000
41
0.060000
42
0.070000
50
0.000000
0
INSERT
8
0
2
RPAD
10
1.608000
20
0.671000
41
0.060000
42
0.070000
50
0.000000
0
INSERT
8
0
2
RPAD
10
1.319000
20
0.671000
41
0.060000
42
0.070000
50
0.000000
0
INSERT
8
0
2
RPAD
10
1.403000
20
0.671000
41
0.060000
42
0.070000
50
0.000000
0
INSERT
8
0
2
RPAD
10
1.156000
20
0.671000
41
0.060000
42
0.070000
50
0.000000
0
INSERT
8
0
2
RPAD
10
1.240000
20
0.671000
41
0.060000
42
0.070000
50
0.000000
0
INSERT
8
0
2
RPAD
10
1.483000
20
0.416000
41
0.060000
42
0.070000
50
90.000000
0
INSERT
8
0
2
RPAD
10
1.483000
20
0.500000
41
0.060000
42
0.070000
50
90.000000
0
INSERT
8
0
2
RPAD
10
1.250000
20
-0.420000
41
0.034000
42
0.050000
50
-90.000000
0
INSERT
8
0
2
RPAD
10
1.250000
20
-0.446000
41
0.034000
42
0.050000
50
-90.000000
0
INSERT
8
0
2
RPAD
10
1.250000
20
-0.472000
41
0.034000
42
0.050000
50
-90.000000
0
INSERT
8
0
2
RPAD
10
1.315000
20
-0.472000
41
0.034000
42
0.050000
50
-90.000000
0
INSERT
8
0
2
RPAD
10
1.315000
20
-0.446000
41
0.034000
42
0.050000
50
-90.000000
0
INSERT
8
0
2
RPAD
10
1.315000
20
-0.420000
41
0.034000
42
0.050000
50
-90.000000
0
INSERT
8
0
2
RPAD
10
1.008000
20
-0.439000
41
0.060000
42
0.070000
50
90.000000
0
INSERT
8
0
2
RPAD
10
1.008000
20
-0.355000
41
0.060000
42
0.070000
50
90.000000
0
INSERT
8
0
2
RPAD
10
1.079000
20
-0.439000
41
0.060000
42
0.070000
50
90.000000
0
INSERT
8
0
2
RPAD
10
1.079000
20
-0.355000
41
0.060000
42
0.070000
50
90.000000
0
INSERT
8
0
2
RPAD
10
1.055000
20
-0.502000
41
0.060000
42
0.070000
50
0.000000
0
INSERT
8
0
2
RPAD
10
1.139000
20
-0.502000
41
0.060000
42
0.070000
50
0.000000
0
INSERT
8
0
2
RPAD
10
1.153000
20
-0.439000
41
0.060000
42
0.070000
50
90.000000
0
INSERT
8
0
2
RPAD
10
1.153000
20
-0.355000
41
0.060000
42
0.070000
50
90.000000
0
INSERT
8
0
2
RPAD
10
1.382000
20
-0.368000
41
0.060000
42
0.070000
50
90.000000
0
INSERT
8
0
2
RPAD
10
1.382000
20
-0.284000
41
0.060000
42
0.070000
50
90.000000
0
INSERT
8
0
2
RPAD
10
1.236000
20
-0.348000
41
0.060000
42
0.070000
50
0.000000
0
INSERT
8
0
2
RPAD
10
1.320000
20
-0.348000
41
0.060000
42
0.070000
50
0.000000
0
INSERT
8
0
2
RPAD
10
1.496000
20
-0.348000
41
0.060000
42
0.070000
50
270.000000
0
INSERT
8
0
2
RPAD
10
1.496000
20
-0.432000
41
0.060000
42
0.070000
50
270.000000
0
INSERT
8
0
2
RPAD
10
1.441000
20
-0.261000
41
0.060000
42
0.070000
50
0.000000
0
INSERT
8
0
2
RPAD
10
1.525000
20
-0.261000
41
0.060000
42
0.070000
50
0.000000
0
INSERT
8
0
2
RPAD
10
1.236000
20
-0.261000
41
0.060000
42
0.070000
50
0.000000
0
INSERT
8
0
2
RPAD
10
1.320000
20
-0.261000
41
0.060000
42
0.070000
50
0.000000
0
INSERT
8
0
2
RPAD
10
1.073000
20
-0.261000
41
0.060000
42
0.070000
50
0.000000
0
INSERT
8
0
2
RPAD
10
1.157000
20
-0.261000
41
0.060000
42
0.070000
50
0.000000
0
INSERT
8
0
2
RPAD
10
1.398000
20
-0.507000
41
0.060000
42
0.070000
50
90.000000
0
INSERT
8
0
2
RPAD
10
1.398000
20
-0.423000
41
0.060000
42
0.070000
50
90.000000
0
INSERT
8
0
2
RPAD
10
0.953000
20
1.026000
41
0.100000
42
0.170000
50
-90.000000
0
INSERT
8
0
2
RPAD
10
0.953000
20
0.840000
41
0.100000
42
0.170000
50
-90.000000
0
INSERT
8
0
2
RPAD
10
1.161000
20
0.966000
41
0.045000
42
0.100000
50
90.000000
0
INSERT
8
0
2
RPAD
10
1.366000
20
0.816000
41
0.045000
42
0.100000
50
-90.000000
0
INSERT
8
0
2
RPAD
10
1.161000
20
0.916000
41
0.045000
42
0.100000
50
90.000000
0
INSERT
8
0
2
RPAD
10
1.366000
20
0.866000
41
0.045000
42
0.100000
50
-90.000000
0
INSERT
8
0
2
RPAD
10
1.161000
20
0.866000
41
0.045000
42
0.100000
50
90.000000
0
INSERT
8
0
2
RPAD
10
1.366000
20
0.916000
41
0.045000
42
0.100000
50
-90.000000
0
INSERT
8
0
2
RPAD
10
1.161000
20
0.816000
41
0.045000
42
0.100000
50
90.000000
0
INSERT
8
0
2
RPAD
10
1.366000
20
0.966000
41
0.045000
42
0.100000
50
-90.000000
0
INSERT
8
0
2
RPAD
10
0.531000
20
-0.502000
41
0.060000
42
0.070000
50
0.000000
0
INSERT
8
0
2
RPAD
10
0.615000
20
-0.502000
41
0.060000
42
0.070000
50
0.000000
0
INSERT
8
0
2
RPAD
10
0.531000
20
-0.565000
41
0.060000
42
0.070000
50
0.000000
0
INSERT
8
0
2
RPAD
10
0.615000
20
-0.565000
41
0.060000
42
0.070000
50
0.000000
0
INSERT
8
0
2
RPAD
10
0.531000
20
-0.628000
41
0.060000
42
0.070000
50
0.000000
0
INSERT
8
0
2
RPAD
10
0.615000
20
-0.628000
41
0.060000
42
0.070000
50
0.000000
0
INSERT
8
0
2
RPAD
10
1.312000
20
1.104000
41
0.100000
42
0.170000
50
180.000000
0
INSERT
8
0
2
RPAD
10
1.126000
20
1.104000
41
0.100000
42
0.170000
50
180.000000
0
INSERT
8
0
2
RPAD
10
1.468000
20
0.840000
41
0.060000
42
0.070000
50
0.000000
0
INSERT
8
0
2
RPAD
10
1.552000
20
0.840000
41
0.060000
42
0.070000
50
0.000000
0
INSERT
8
0
2
RPAD
10
1.425000
20
1.025000
41
0.060000
42
0.070000
50
0.000000
0
INSERT
8
0
2
RPAD
10
1.509000
20
1.025000
41
0.060000
42
0.070000
50
0.000000
0
INSERT
8
0
2
RPAD
10
0.043000
20
-1.675000
41
0.060000
42
0.070000
50
0.000000
0
INSERT
8
0
2
RPAD
10
0.127000
20
-1.675000
41
0.060000
42
0.070000
50
0.000000
0
INSERT
8
0
2
RPAD
10
-0.928000
20
0.430000
41
0.060000
42
0.070000
50
90.000000
0
INSERT
8
0
2
RPAD
10
-0.928000
20
0.514000
41
0.060000
42
0.070000
50
90.000000
0
INSERT
8
0
2
RPAD
10
0.827000
20
0.434000
41
0.060000
42
0.070000
50
0.000000
0
INSERT
8
0
2
RPAD
10
0.911000
20
0.434000
41
0.060000
42
0.070000
50
0.000000
0
INSERT
8
0
2
EPAD
10
-1.659000
20
1.748000
41
0.059000
42
0.059000
0
INSERT
8
0
2
EPAD
10
1.454000
20
1.295000
41
0.059000
42
0.059000
0
INSERT
8
0
2
EPAD
10
1.407000
20
-1.818000
41
0.059000
42
0.059000
0
INSERT
8
0
2
EPAD
10
-1.340000
20
-1.196000
41
0.059000
42
0.059000
0
INSERT
8
0
2
EPAD
10
-1.332000
20
-1.047000
41
0.059000
42
0.059000
0
INSERT
8
0
2
EPAD
10
-1.092000
20
0.433000
41
0.059000
42
0.059000
0
INSERT
8
0
2
RPAD
10
1.105000
20
-1.195000
41
0.060000
42
0.140000
50
180.000000
0
INSERT
8
0
2
RPAD
10
1.038000
20
-1.195000
41
0.060000
42
0.140000
50
180.000000
0
INSERT
8
0
2
RPAD
10
0.971000
20
-1.195000
41
0.060000
42
0.140000
50
180.000000
0
INSERT
8
0
2
RPAD
10
0.904000
20
-1.195000
41
0.060000
42
0.140000
50
180.000000
0
INSERT
8
0
2
RPAD
10
0.837000
20
-1.195000
41
0.060000
42
0.140000
50
180.000000
0
INSERT
8
0
2
RPAD
10
0.971000
20
-1.600000
41
0.440000
42
0.350000
50
180.000000
0
INSERT
8
0
2
RPAD
10
0.807000
20
-0.863000
41
0.100000
42
0.170000
50
-90.000000
0
INSERT
8
0
2
RPAD
10
0.807000
20
-1.049000
41
0.100000
42
0.170000
50
-90.000000
0
INSERT
8
0
2
RPAD
10
1.063000
20
-0.863000
41
0.100000
42
0.170000
50
-90.000000
0
INSERT
8
0
2
RPAD
10
1.063000
20
-1.049000
41
0.100000
42
0.170000
50
-90.000000
0
INSERT
8
0
2
RPAD
10
1.189000
20
-1.074000
41
0.060000
42
0.070000
50
90.000000
0
INSERT
8
0
2
RPAD
10
1.189000
20
-0.990000
41
0.060000
42
0.070000
50
90.000000
0
INSERT
8
0
2
RPAD
10
0.760000
20
-1.206000
41
0.060000
42
0.070000
50
90.000000
0
INSERT
8
0
2
RPAD
10
0.760000
20
-1.122000
41
0.060000
42
0.070000
50
90.000000
0
INSERT
8
0
2
RPAD
10
0.669000
20
-1.207000
41
0.060000
42
0.070000
50
90.000000
0
INSERT
8
0
2
RPAD
10
0.669000
20
-1.123000
41
0.060000
42
0.070000
50
90.000000
0
INSERT
8
0
2
RPAD
10
1.520000
20
-1.230000
41
0.060000
42
0.080000
50
0.000000
0
INSERT
8
0
2
RPAD
10
1.644000
20
-1.230000
41
0.060000
42
0.080000
50
0.000000
0
INSERT
8
0
2
RPAD
10
1.528000
20
-0.844000
41
0.045000
42
0.100000
50
0.000000
0
INSERT
8
0
2
RPAD
10
1.378000
20
-1.049000
41
0.045000
42
0.100000
50
-180.000000
0
INSERT
8
0
2
RPAD
10
1.478000
20
-0.844000
41
0.045000
42
0.100000
50
0.000000
0
INSERT
8
0
2
RPAD
10
1.428000
20
-1.049000
41
0.045000
42
0.100000
50
-180.000000
0
INSERT
8
0
2
RPAD
10
1.428000
20
-0.844000
41
0.045000
42
0.100000
50
0.000000
0
INSERT
8
0
2
RPAD
10
1.478000
20
-1.049000
41
0.045000
42
0.100000
50
-180.000000
0
INSERT
8
0
2
RPAD
10
1.378000
20
-0.844000
41
0.045000
42
0.100000
50
0.000000
0
INSERT
8
0
2
RPAD
10
1.528000
20
-1.049000
41
0.045000
42
0.100000
50
-180.000000
0
INSERT
8
0
2
RPAD
10
1.436000
20
-1.159000
41
0.060000
42
0.070000
50
0.000000
0
INSERT
8
0
2
RPAD
10
1.520000
20
-1.159000
41
0.060000
42
0.070000
50
0.000000
0
INSERT
8
0
2
RPAD
10
1.610000
20
-1.101000
41
0.060000
42
0.070000
50
90.000000
0
INSERT
8
0
2
RPAD
10
1.610000
20
-1.017000
41
0.060000
42
0.070000
50
90.000000
0
INSERT
8
0
2
RPAD
10
1.562000
20
-1.147000
41
0.040000
42
0.050000
50
0.000000
0
INSERT
8
0
2
RPAD
10
1.598000
20
-1.147000
41
0.040000
42
0.050000
50
0.000000
0
INSERT
8
0
2
RPAD
10
1.315000
20
-1.025000
41
0.060000
42
0.070000
50
90.000000
0
INSERT
8
0
2
RPAD
10
1.315000
20
-0.941000
41
0.060000
42
0.070000
50
90.000000
0
INSERT
8
0
2
RPAD
10
1.453000
20
-0.947000
41
0.120000
42
0.160000
50
90.000000
0
INSERT
8
0
2
RPAD
10
1.404000
20
-0.706000
41
0.060000
42
0.070000
50
0.000000
0
INSERT
8
0
2
RPAD
10
1.488000
20
-0.706000
41
0.060000
42
0.070000
50
0.000000
0
INSERT
8
0
2
RPAD
10
1.405000
20
-0.639000
41
0.060000
42
0.070000
50
0.000000
0
INSERT
8
0
2
RPAD
10
1.489000
20
-0.639000
41
0.060000
42
0.070000
50
0.000000
0
INSERT
8
0
2
RPAD
10
1.337000
20
-0.709000
41
0.060000
42
0.070000
50
90.000000
0
INSERT
8
0
2
RPAD
10
1.337000
20
-0.625000
41
0.060000
42
0.070000
50
90.000000
0
INSERT
8
0
2
RPAD
10
1.575000
20
-0.719000
41
0.060000
42
0.070000
50
90.000000
0
INSERT
8
0
2
RPAD
10
1.575000
20
-0.635000
41
0.060000
42
0.070000
50
90.000000
0
INSERT
8
0
2
RPAD
10
1.642000
20
-0.719000
41
0.060000
42
0.070000
50
90.000000
0
INSERT
8
0
2
RPAD
10
1.642000
20
-0.635000
41
0.060000
42
0.070000
50
90.000000
0
INSERT
8
0
2
RPAD
10
1.606000
20
-0.853000
41
0.060000
42
0.070000
50
90.000000
0
INSERT
8
0
2
RPAD
10
1.606000
20
-0.769000
41
0.060000
42
0.070000
50
90.000000
0
INSERT
8
0
2
EPAD
10
-0.688000
20
-1.419000
41
0.059000
42
0.059000
0
INSERT
8
0
2
EPAD
10
-0.373000
20
-1.159000
41
0.059000
42
0.059000
0
INSERT
8
0
2
EPAD
10
-0.499000
20
-1.502000
41
0.059000
42
0.059000
0
INSERT
8
0
2
EPAD
10
-0.775000
20
-1.187000
41
0.059000
42
0.059000
0
INSERT
8
0
2
EPAD
10
-1.625000
20
-0.899000
41
0.059000
42
0.059000
0
INSERT
8
0
2
EPAD
10
-1.460000
20
-0.738000
41
0.059000
42
0.059000
0
INSERT
8
0
2
EPAD
10
-1.184000
20
-0.356000
41
0.059000
42
0.059000
0
INSERT
8
0
2
EPAD
10
-1.460000
20
0.238000
41
0.059000
42
0.059000
0
INSERT
8
0
2
EPAD
10
-1.432000
20
0.911000
41
0.059000
42
0.059000
0
INSERT
8
0
2
EPAD
10
-0.157000
20
0.068000
41
0.059000
42
0.059000
0
INSERT
8
0
2
EPAD
10
-0.857000
20
0.450000
41
0.059000
42
0.059000
0
INSERT
8
0
2
EPAD
10
-0.381000
20
0.112000
41
0.059000
42
0.059000
0
INSERT
8
0
2
EPAD
10
-0.723000
20
-0.281000
41
0.059000
42
0.059000
0
INSERT
8
0
2
EPAD
10
-0.562000
20
0.041000
41
0.059000
42
0.059000
0
INSERT
8
0
2
EPAD
10
-0.440000
20
-0.175000
41
0.059000
42
0.059000
0
INSERT
8
0
2
EPAD
10
-0.952000
20
0.883000
41
0.059000
42
0.059000
0
INSERT
8
0
2
EPAD
10
-0.129000
20
0.667000
41
0.059000
42
0.059000
0
INSERT
8
0
2
EPAD
10
-0.456000
20
1.147000
41
0.059000
42
0.059000
0
INSERT
8
0
2
EPAD
10
0.083000
20
0.804000
41
0.059000
42
0.059000
0
INSERT
8
0
2
EPAD
10
0.827000
20
0.423000
41
0.059000
42
0.059000
0
INSERT
8
0
2
EPAD
10
1.008000
20
0.663000
41
0.059000
42
0.059000
0
INSERT
8
0
2
EPAD
10
1.031000
20
0.505000
41
0.059000
42
0.059000
0
INSERT
8
0
2
EPAD
10
1.232000
20
0.588000
41
0.059000
42
0.059000
0
INSERT
8
0
2
EPAD
10
1.445000
20
0.631000
41
0.059000
42
0.059000
0
INSERT
8
0
2
EPAD
10
1.547000
20
0.249000
41
0.059000
42
0.059000
0
INSERT
8
0
2
EPAD
10
0.807000
20
0.072000
41
0.059000
42
0.059000
0
INSERT
8
0
2
EPAD
10
0.571000
20
0.119000
41
0.059000
42
0.059000
0
INSERT
8
0
2
EPAD
10
0.224000
20
-0.277000
41
0.059000
42
0.059000
0
INSERT
8
0
2
EPAD
10
0.512000
20
-0.175000
41
0.059000
42
0.059000
0
INSERT
8
0
2
EPAD
10
0.394000
20
0.045000
41
0.059000
42
0.059000
0
INSERT
8
0
2
EPAD
10
-0.247000
20
-0.100000
41
0.059000
42
0.059000
0
INSERT
8
0
2
EPAD
10
0.705000
20
-0.096000
41
0.059000
42
0.059000
0
INSERT
8
0
2
EPAD
10
1.146000
20
-0.332000
41
0.059000
42
0.059000
0
INSERT
8
0
2
EPAD
10
1.504000
20
-0.513000
41
0.059000
42
0.059000
0
INSERT
8
0
2
EPAD
10
1.429000
20
-0.750000
41
0.059000
42
0.059000
0
INSERT
8
0
2
EPAD
10
-1.393000
20
1.442000
41
0.059000
42
0.059000
0
INSERT
8
0
2
EPAD
10
-1.090000
20
1.218000
41
0.059000
42
0.059000
0
INSERT
8
0
2
EPAD
10
1.047000
20
0.860000
41
0.059000
42
0.059000
0
INSERT
8
0
2
EPAD
10
1.138000
20
-1.273000
41
0.059000
42
0.059000
0
INSERT
8
0
2
EPAD
10
1.650000
20
-0.718000
41
0.059000
42
0.059000
0
INSERT
8
0
2
EPAD
10
0.165000
20
-0.836000
41
0.059000
42
0.059000
0
INSERT
8
0
2
EPAD
10
0.386000
20
-1.049000
41
0.059000
42
0.059000
0
INSERT
8
0
2
EPAD
10
0.303000
20
-0.781000
41
0.059000
42
0.059000
0
INSERT
8
0
2
EPAD
10
1.134000
20
0.974000
41
0.059000
42
0.059000
0
INSERT
8
0
2
RPAD
10
0.264000
20
-1.642000
41
0.045000
42
0.070000
50
180.000000
0
INSERT
8
0
2
RPAD
10
0.189000
20
-1.642000
41
0.045000
42
0.070000
50
180.000000
0
INSERT
8
0
2
RPAD
10
0.189000
20
-1.721000
41
0.045000
42
0.070000
50
180.000000
0
INSERT
8
0
2
RPAD
10
0.226000
20
-1.721000
41
0.045000
42
0.070000
50
180.000000
0
INSERT
8
0
2
RPAD
10
0.264000
20
-1.721000
41
0.045000
42
0.070000
50
180.000000
0
INSERT
8
0
2
RPAD
10
0.642000
20
-1.778000
41
0.045000
42
0.060000
50
0.000000
0
INSERT
8
0
2
RPAD
10
0.604000
20
-1.778000
41
0.045000
42
0.060000
50
0.000000
0
INSERT
8
0
2
RPAD
10
0.567000
20
-1.778000
41
0.045000
42
0.060000
50
0.000000
0
INSERT
8
0
2
RPAD
10
0.567000
20
-1.684000
41
0.045000
42
0.060000
50
0.000000
0
INSERT
8
0
2
RPAD
10
0.642000
20
-1.684000
41
0.045000
42
0.060000
50
0.000000
0
INSERT
8
0
2
RPAD
10
0.728000
20
-1.368000
41
0.060000
42
0.070000
50
90.000000
0
INSERT
8
0
2
RPAD
10
0.728000
20
-1.284000
41
0.060000
42
0.070000
50
90.000000
0
INSERT
8
0
2
RPAD
10
0.661000
20
-1.368000
41
0.060000
42
0.070000
50
90.000000
0
INSERT
8
0
2
RPAD
10
0.661000
20
-1.284000
41
0.060000
42
0.070000
50
90.000000
0
INSERT
8
0
2
EPAD
10
0.669000
20
-1.726000
41
0.059000
42
0.059000
0
INSERT
8
0
2
RPAD
10
-1.527000
20
1.265000
41
0.045000
42
0.100000
50
90.000000
0
INSERT
8
0
2
RPAD
10
-1.322000
20
1.115000
41
0.045000
42
0.100000
50
-90.000000
0
INSERT
8
0
2
RPAD
10
-1.527000
20
1.215000
41
0.045000
42
0.100000
50
90.000000
0
INSERT
8
0
2
RPAD
10
-1.322000
20
1.165000
41
0.045000
42
0.100000
50
-90.000000
0
INSERT
8
0
2
RPAD
10
-1.527000
20
1.165000
41
0.045000
42
0.100000
50
90.000000
0
INSERT
8
0
2
RPAD
10
-1.322000
20
1.215000
41
0.045000
42
0.100000
50
-90.000000
0
INSERT
8
0
2
RPAD
10
-1.527000
20
1.115000
41
0.045000
42
0.100000
50
90.000000
0
INSERT
8
0
2
RPAD
10
-1.322000
20
1.265000
41
0.045000
42
0.100000
50
-90.000000
0
INSERT
8
0
2
RPAD
10
-1.519000
20
1.033000
41
0.060000
42
0.070000
50
0.000000
0
INSERT
8
0
2
RPAD
10
-1.435000
20
1.033000
41
0.060000
42
0.070000
50
0.000000
0
INSERT
8
0
2
RPAD
10
-1.377000
20
1.033000
41
0.060000
42
0.070000
50
0.000000
0
INSERT
8
0
2
RPAD
10
-1.293000
20
1.033000
41
0.060000
42
0.070000
50
0.000000
0
INSERT
8
0
2
RPAD
10
-1.629000
20
1.175000
41
0.060000
42
0.070000
50
90.000000
0
INSERT
8
0
2
RPAD
10
-1.629000
20
1.259000
41
0.060000
42
0.070000
50
90.000000
0
INSERT
8
0
2
RPAD
10
-1.629000
20
1.125000
41
0.060000
42
0.070000
50
-90.000000
0
INSERT
8
0
2
RPAD
10
-1.629000
20
1.041000
41
0.060000
42
0.070000
50
-90.000000
0
INSERT
8
0
2
RPAD
10
-0.578000
20
-0.529000
41
0.060000
42
0.070000
50
0.000000
0
INSERT
8
0
2
RPAD
10
-0.494000
20
-0.529000
41
0.060000
42
0.070000
50
0.000000
0
INSERT
8
0
2
RPAD
10
-0.424000
20
-0.529000
41
0.060000
42
0.070000
50
0.000000
0
INSERT
8
0
2
RPAD
10
-0.340000
20
-0.529000
41
0.060000
42
0.070000
50
0.000000
0
INSERT
8
0
2
RPAD
10
0.602000
20
-0.805000
41
0.060000
42
0.070000
50
90.000000
0
INSERT
8
0
2
RPAD
10
0.602000
20
-0.721000
41
0.060000
42
0.070000
50
90.000000
0
INSERT
8
0
2
RPAD
10
0.669000
20
-0.805000
41
0.060000
42
0.070000
50
90.000000
0
INSERT
8
0
2
RPAD
10
0.669000
20
-0.721000
41
0.060000
42
0.070000
50
90.000000
0
INSERT
8
0
2
EPAD
10
0.122000
20
-0.584000
41
0.059000
42
0.059000
0
INSERT
8
0
2
EPAD
10
0.433000
20
-0.482000
41
0.059000
42
0.059000
0
INSERT
8
0
2
RPAD
10
0.445000
20
-0.572000
41
0.060000
42
0.070000
50
90.000000
0
INSERT
8
0
2
RPAD
10
0.445000
20
-0.488000
41
0.060000
42
0.070000
50
90.000000
0
INSERT
8
0
2
RPAD
10
0.764000
20
-0.582000
41
0.060000
42
0.070000
50
90.000000
0
INSERT
8
0
2
RPAD
10
0.764000
20
-0.498000
41
0.060000
42
0.070000
50
90.000000
0
INSERT
8
0
2
RPAD
10
0.571000
20
-1.600000
41
0.060000
42
0.070000
50
0.000000
0
INSERT
8
0
2
RPAD
10
0.655000
20
-1.600000
41
0.060000
42
0.070000
50
0.000000
0
INSERT
8
0
2
RPAD
10
0.569000
20
-1.513000
41
0.060000
42
0.070000
50
0.000000
0
INSERT
8
0
2
RPAD
10
0.653000
20
-1.513000
41
0.060000
42
0.070000
50
0.000000
0
INSERT
8
0
2
RPAD
10
1.087000
20
-0.624000
41
0.060000
42
0.070000
50
0.000000
0
INSERT
8
0
2
RPAD
10
1.171000
20
-0.624000
41
0.060000
42
0.070000
50
0.000000
0
INSERT
8
0
2
RPAD
10
1.520000
20
-1.336000
41
0.060000
42
0.080000
50
0.000000
0
INSERT
8
0
2
RPAD
10
1.644000
20
-1.336000
41
0.060000
42
0.080000
50
0.000000
0
INSERT
8
0
2
RPAD
10
1.472000
20
-1.289000
41
0.040000
42
0.050000
50
90.000000
0
INSERT
8
0
2
RPAD
10
1.472000
20
-1.253000
41
0.040000
42
0.050000
50
90.000000
0
INSERT
8
0
2
RPAD
10
1.394000
20
-1.332000
41
0.060000
42
0.070000
50
90.000000
0
INSERT
8
0
2
RPAD
10
1.394000
20
-1.248000
41
0.060000
42
0.070000
50
90.000000
0
INSERT
8
0
2
RPAD
10
1.307000
20
-1.332000
41
0.060000
42
0.070000
50
90.000000
0
INSERT
8
0
2
RPAD
10
1.307000
20
-1.248000
41
0.060000
42
0.070000
50
90.000000
0
INSERT
8
0
2
RPAD
10
0.854000
20
-0.582000
41
0.060000
42
0.070000
50
90.000000
0
INSERT
8
0
2
RPAD
10
0.854000
20
-0.498000
41
0.060000
42
0.070000
50
90.000000
0
INSERT
8
0
2
RPAD
10
0.850000
20
-0.734000
41
0.060000
42
0.070000
50
90.000000
0
INSERT
8
0
2
RPAD
10
0.850000
20
-0.650000
41
0.060000
42
0.070000
50
90.000000
0
INSERT
8
0
2
RPAD
10
0.998000
20
-0.659000
41
0.046000
42
0.031000
50
-90.000000
0
INSERT
8
0
2
RPAD
10
0.978000
20
-0.659000
41
0.046000
42
0.031000
50
-90.000000
0
INSERT
8
0
2
RPAD
10
0.959000
20
-0.659000
41
0.046000
42
0.031000
50
-90.000000
0
INSERT
8
0
2
RPAD
10
0.939000
20
-0.659000
41
0.046000
42
0.031000
50
-90.000000
0
INSERT
8
0
2
RPAD
10
0.939000
20
-0.730000
41
0.046000
42
0.031000
50
-90.000000
0
INSERT
8
0
2
RPAD
10
0.959000
20
-0.730000
41
0.046000
42
0.031000
50
-90.000000
0
INSERT
8
0
2
RPAD
10
0.978000
20
-0.730000
41
0.046000
42
0.031000
50
-90.000000
0
INSERT
8
0
2
RPAD
10
0.998000
20
-0.730000
41
0.046000
42
0.031000
50
-90.000000
0
INSERT
8
0
2
RPAD
10
0.968000
20
-0.695000
41
0.094000
42
0.043000
50
-180.000000
0
INSERT
8
0
2
RPAD
10
0.937000
20
-0.903000
41
0.060000
42
0.070000
50
90.000000
0
INSERT
8
0
2
RPAD
10
0.937000
20
-0.819000
41
0.060000
42
0.070000
50
90.000000
0
INSERT
8
0
2
RPAD
10
-0.216000
20
-1.710000
41
0.060000
42
0.070000
50
90.000000
0
INSERT
8
0
2
RPAD
10
-0.216000
20
-1.626000
41
0.060000
42
0.070000
50
90.000000
0
INSERT
8
0
2
RPAD
10
1.079000
20
-0.781000
41
0.060000
42
0.070000
50
0.000000
0
INSERT
8
0
2
RPAD
10
1.163000
20
-0.781000
41
0.060000
42
0.070000
50
0.000000
0
INSERT
8
0
2
RPAD
10
1.079000
20
-0.714000
41
0.060000
42
0.070000
50
0.000000
0
INSERT
8
0
2
RPAD
10
1.163000
20
-0.714000
41
0.060000
42
0.070000
50
0.000000
0
INSERT
8
0
2
EPAD
10
0.870000
20
-0.706000
41
0.059000
42
0.059000
0
INSERT
8
0
2
RPAD
10
1.173000
20
-1.238000
41
0.060000
42
0.070000
50
90.000000
0
INSERT
8
0
2
RPAD
10
1.173000
20
-1.154000
41
0.060000
42
0.070000
50
90.000000
0
INSERT
8
0
2
EPAD
10
-1.571000
20
-1.691000
41
0.220000
42
0.220000
0
INSERT
8
0
2
EPAD
10
1.578000
20
-1.691000
41
0.220000
42
0.220000
0
INSERT
8
0
2
EPAD
10
-1.421000
20
1.683000
41
0.220000
42
0.220000
0
INSERT
8
0
2
EPAD
10
1.478000
20
1.683000
41
0.220000
42
0.220000
0
INSERT
8
0
2
EPAD
10
-1.221000
20
1.383000
41
0.082000
42
0.082000
0
INSERT
8
0
2
EPAD
10
-1.221000
20
1.483000
41
0.082000
42
0.082000
0
INSERT
8
0
2
EPAD
10
-1.121000
20
1.383000
41
0.082000
42
0.082000
0
INSERT
8
0
2
EPAD
10
-1.121000
20
1.483000
41
0.082000
42
0.082000
0
INSERT
8
0
2
EPAD
10
-1.021000
20
1.383000
41
0.082000
42
0.082000
0
INSERT
8
0
2
EPAD
10
-1.021000
20
1.483000
41
0.082000
42
0.082000
0
INSERT
8
0
2
EPAD
10
-0.921000
20
1.383000
41
0.082000
42
0.082000
0
INSERT
8
0
2
EPAD
10
-0.921000
20
1.483000
41
0.082000
42
0.082000
0
INSERT
8
0
2
EPAD
10
-0.821000
20
1.383000
41
0.082000
42
0.082000
0
INSERT
8
0
2
EPAD
10
-0.821000
20
1.483000
41
0.082000
42
0.082000
0
INSERT
8
0
2
EPAD
10
-0.721000
20
1.383000
41
0.082000
42
0.082000
0
INSERT
8
0
2
EPAD
10
-0.721000
20
1.483000
41
0.082000
42
0.082000
0
INSERT
8
0
2
EPAD
10
-0.621000
20
1.383000
41
0.082000
42
0.082000
0
INSERT
8
0
2
EPAD
10
-0.621000
20
1.483000
41
0.082000
42
0.082000
0
INSERT
8
0
2
EPAD
10
-0.521000
20
1.383000
41
0.082000
42
0.082000
0
INSERT
8
0
2
EPAD
10
-0.521000
20
1.483000
41
0.082000
42
0.082000
0
INSERT
8
0
2
EPAD
10
-0.421000
20
1.383000
41
0.082000
42
0.082000
0
INSERT
8
0
2
EPAD
10
-0.421000
20
1.483000
41
0.082000
42
0.082000
0
INSERT
8
0
2
EPAD
10
-0.321000
20
1.383000
41
0.082000
42
0.082000
0
INSERT
8
0
2
EPAD
10
-0.321000
20
1.483000
41
0.082000
42
0.082000
0
INSERT
8
0
2
EPAD
10
-0.221000
20
1.383000
41
0.082000
42
0.082000
0
INSERT
8
0
2
EPAD
10
-0.221000
20
1.483000
41
0.082000
42
0.082000
0
INSERT
8
0
2
EPAD
10
-0.121000
20
1.383000
41
0.082000
42
0.082000
0
INSERT
8
0
2
EPAD
10
-0.121000
20
1.483000
41
0.082000
42
0.082000
0
INSERT
8
0
2
EPAD
10
-0.021000
20
1.383000
41
0.082000
42
0.082000
0
INSERT
8
0
2
EPAD
10
-0.021000
20
1.483000
41
0.082000
42
0.082000
0
INSERT
8
0
2
EPAD
10
0.078000
20
1.383000
41
0.082000
42
0.082000
0
INSERT
8
0
2
EPAD
10
0.078000
20
1.483000
41
0.082000
42
0.082000
0
INSERT
8
0
2
EPAD
10
0.178000
20
1.383000
41
0.082000
42
0.082000
0
INSERT
8
0
2
EPAD
10
0.178000
20
1.483000
41
0.082000
42
0.082000
0
INSERT
8
0
2
EPAD
10
0.278000
20
1.383000
41
0.082000
42
0.082000
0
INSERT
8
0
2
EPAD
10
0.278000
20
1.483000
41
0.082000
42
0.082000
0
INSERT
8
0
2
EPAD
10
0.378000
20
1.383000
41
0.082000
42
0.082000
0
INSERT
8
0
2
EPAD
10
0.378000
20
1.483000
41
0.082000
42
0.082000
0
INSERT
8
0
2
EPAD
10
0.478000
20
1.383000
41
0.082000
42
0.082000
0
INSERT
8
0
2
EPAD
10
0.478000
20
1.483000
41
0.082000
42
0.082000
0
INSERT
8
0
2
EPAD
10
0.578000
20
1.383000
41
0.082000
42
0.082000
0
INSERT
8
0
2
EPAD
10
0.578000
20
1.483000
41
0.082000
42
0.082000
0
INSERT
8
0
2
EPAD
10
0.678000
20
1.383000
41
0.082000
42
0.082000
0
INSERT
8
0
2
EPAD
10
0.678000
20
1.483000
41
0.082000
42
0.082000
0
INSERT
8
0
2
EPAD
10
0.778000
20
1.383000
41
0.082000
42
0.082000
0
INSERT
8
0
2
EPAD
10
0.778000
20
1.483000
41
0.082000
42
0.082000
0
INSERT
8
0
2
EPAD
10
0.878000
20
1.383000
41
0.082000
42
0.082000
0
INSERT
8
0
2
EPAD
10
0.878000
20
1.483000
41
0.082000
42
0.082000
0
INSERT
8
0
2
EPAD
10
0.978000
20
1.383000
41
0.082000
42
0.082000
0
INSERT
8
0
2
EPAD
10
0.978000
20
1.483000
41
0.082000
42
0.082000
0
INSERT
8
0
2
EPAD
10
1.078000
20
1.383000
41
0.082000
42
0.082000
0
INSERT
8
0
2
EPAD
10
1.078000
20
1.483000
41
0.082000
42
0.082000
0
INSERT
8
0
2
EPAD
10
1.178000
20
1.383000
41
0.082000
42
0.082000
0
INSERT
8
0
2
EPAD
10
1.178000
20
1.483000
41
0.082000
42
0.082000
0
INSERT
8
0
2
EPAD
10
1.278000
20
1.383000
41
0.082000
42
0.082000
0
INSERT
8
0
2
EPAD
10
1.278000
20
1.483000
41
0.082000
42
0.082000
0
INSERT
8
0
2
RPAD
10
0.563000
20
-1.317000
41
0.090000
42
0.090000
50
0.000000
0
INSERT
8
0
2
EPAD
10
0.563000
20
-1.217000
41
0.085000
42
0.085000
0
INSERT
8
0
2
EPAD
10
0.563000
20
-1.117000
41
0.085000
42
0.085000
0
INSERT
8
0
2
EPAD
10
0.563000
20
-1.017000
41
0.085000
42
0.085000
0
INSERT
8
0
2
EPAD
10
0.563000
20
-0.917000
41
0.085000
42
0.085000
0
INSERT
8
0
2
EPAD
10
-1.545000
20
-1.149000
41
0.075000
42
0.075000
0
INSERT
8
0
2
EPAD
10
-1.595000
20
-1.199000
41
0.075000
42
0.075000
0
INSERT
8
0
2
EPAD
10
-1.495000
20
-1.199000
41
0.075000
42
0.075000
0
INSERT
8
0
2
EPAD
10
-1.595000
20
-1.099000
41
0.075000
42
0.075000
0
INSERT
8
0
2
EPAD
10
-1.495000
20
-1.099000
41
0.075000
42
0.075000
0
INSERT
8
0
2
EPAD
10
1.357000
20
-1.561000
41
0.075000
42
0.075000
0
INSERT
8
0
2
EPAD
10
1.307000
20
-1.611000
41
0.075000
42
0.075000
0
INSERT
8
0
2
EPAD
10
1.407000
20
-1.611000
41
0.075000
42
0.075000
0
INSERT
8
0
2
EPAD
10
1.307000
20
-1.511000
41
0.075000
42
0.075000
0
INSERT
8
0
2
EPAD
10
1.407000
20
-1.511000
41
0.075000
42
0.075000
0
INSERT
8
0
2
EPAD
10
-1.221000
20
1.583000
41
0.082000
42
0.082000
0
INSERT
8
0
2
EPAD
10
-1.221000
20
1.683000
41
0.082000
42
0.082000
0
INSERT
8
0
2
EPAD
10
-1.121000
20
1.583000
41
0.082000
42
0.082000
0
INSERT
8
0
2
EPAD
10
-1.121000
20
1.683000
41
0.082000
42
0.082000
0
INSERT
8
0
2
EPAD
10
-1.021000
20
1.583000
41
0.082000
42
0.082000
0
INSERT
8
0
2
EPAD
10
-1.021000
20
1.683000
41
0.082000
42
0.082000
0
INSERT
8
0
2
EPAD
10
-0.921000
20
1.583000
41
0.082000
42
0.082000
0
INSERT
8
0
2
EPAD
10
-0.921000
20
1.683000
41
0.082000
42
0.082000
0
INSERT
8
0
2
EPAD
10
-0.821000
20
1.583000
41
0.082000
42
0.082000
0
INSERT
8
0
2
EPAD
10
-0.821000
20
1.683000
41
0.082000
42
0.082000
0
INSERT
8
0
2
EPAD
10
-0.721000
20
1.583000
41
0.082000
42
0.082000
0
INSERT
8
0
2
EPAD
10
-0.721000
20
1.683000
41
0.082000
42
0.082000
0
INSERT
8
0
2
EPAD
10
-0.621000
20
1.583000
41
0.082000
42
0.082000
0
INSERT
8
0
2
EPAD
10
-0.621000
20
1.683000
41
0.082000
42
0.082000
0
INSERT
8
0
2
EPAD
10
-0.521000
20
1.583000
41
0.082000
42
0.082000
0
INSERT
8
0
2
EPAD
10
-0.521000
20
1.683000
41
0.082000
42
0.082000
0
INSERT
8
0
2
EPAD
10
-0.421000
20
1.583000
41
0.082000
42
0.082000
0
INSERT
8
0
2
EPAD
10
-0.421000
20
1.683000
41
0.082000
42
0.082000
0
INSERT
8
0
2
EPAD
10
-0.321000
20
1.583000
41
0.082000
42
0.082000
0
INSERT
8
0
2
EPAD
10
-0.321000
20
1.683000
41
0.082000
42
0.082000
0
INSERT
8
0
2
EPAD
10
-0.221000
20
1.583000
41
0.082000
42
0.082000
0
INSERT
8
0
2
EPAD
10
-0.221000
20
1.683000
41
0.082000
42
0.082000
0
INSERT
8
0
2
EPAD
10
-0.121000
20
1.583000
41
0.082000
42
0.082000
0
INSERT
8
0
2
EPAD
10
-0.121000
20
1.683000
41
0.082000
42
0.082000
0
INSERT
8
0
2
EPAD
10
-0.021000
20
1.583000
41
0.082000
42
0.082000
0
INSERT
8
0
2
EPAD
10
-0.021000
20
1.683000
41
0.082000
42
0.082000
0
INSERT
8
0
2
EPAD
10
0.078000
20
1.583000
41
0.082000
42
0.082000
0
INSERT
8
0
2
EPAD
10
0.078000
20
1.683000
41
0.082000
42
0.082000
0
INSERT
8
0
2
EPAD
10
0.178000
20
1.583000
41
0.082000
42
0.082000
0
INSERT
8
0
2
EPAD
10
0.178000
20
1.683000
41
0.082000
42
0.082000
0
INSERT
8
0
2
EPAD
10
0.278000
20
1.583000
41
0.082000
42
0.082000
0
INSERT
8
0
2
EPAD
10
0.278000
20
1.683000
41
0.082000
42
0.082000
0
INSERT
8
0
2
EPAD
10
0.378000
20
1.583000
41
0.082000
42
0.082000
0
INSERT
8
0
2
EPAD
10
0.378000
20
1.683000
41
0.082000
42
0.082000
0
INSERT
8
0
2
EPAD
10
0.478000
20
1.583000
41
0.082000
42
0.082000
0
INSERT
8
0
2
EPAD
10
0.478000
20
1.683000
41
0.082000
42
0.082000
0
INSERT
8
0
2
EPAD
10
0.578000
20
1.583000
41
0.082000
42
0.082000
0
INSERT
8
0
2
EPAD
10
0.578000
20
1.683000
41
0.082000
42
0.082000
0
INSERT
8
0
2
EPAD
10
0.678000
20
1.583000
41
0.082000
42
0.082000
0
INSERT
8
0
2
EPAD
10
0.678000
20
1.683000
41
0.082000
42
0.082000
0
INSERT
8
0
2
EPAD
10
0.778000
20
1.583000
41
0.082000
42
0.082000
0
INSERT
8
0
2
EPAD
10
0.778000
20
1.683000
41
0.082000
42
0.082000
0
INSERT
8
0
2
EPAD
10
0.878000
20
1.583000
41
0.082000
42
0.082000
0
INSERT
8
0
2
EPAD
10
0.878000
20
1.683000
41
0.082000
42
0.082000
0
INSERT
8
0
2
EPAD
10
0.978000
20
1.583000
41
0.082000
42
0.082000
0
INSERT
8
0
2
EPAD
10
0.978000
20
1.683000
41
0.082000
42
0.082000
0
INSERT
8
0
2
EPAD
10
1.078000
20
1.583000
41
0.082000
42
0.082000
0
INSERT
8
0
2
EPAD
10
1.078000
20
1.683000
41
0.082000
42
0.082000
0
INSERT
8
0
2
EPAD
10
1.178000
20
1.583000
41
0.082000
42
0.082000
0
INSERT
8
0
2
EPAD
10
1.178000
20
1.683000
41
0.082000
42
0.082000
0
INSERT
8
0
2
EPAD
10
1.278000
20
1.583000
41
0.082000
42
0.082000
0
INSERT
8
0
2
EPAD
10
1.278000
20
1.683000
41
0.082000
42
0.082000
0
POLYLINE
8
0
66
1
40
0.008000
41
0.008000
0
VERTEX
8
0
10
-1.771000
20
-1.844000
0
VERTEX
8
0
10
-1.771000
20
-0.450000
0
SEQEND
8
0
0
POLYLINE
8
0
66
1
40
0.008000
41
0.008000
0
VERTEX
8
0
10
1.778000
20
-1.844000
0
VERTEX
8
0
10
1.778000
20
-0.450000
0
SEQEND
8
0
0
POLYLINE
8
0
66
1
40
0.008000
41
0.008000
0
VERTEX
8
0
10
0.495000
20
1.883000
0
VERTEX
8
0
10
1.551000
20
1.883000
0
SEQEND
8
0
0
POLYLINE
8
0
66
1
40
0.008000
41
0.008000
0
VERTEX
8
0
10
1.598000
20
1.836000
0
VERTEX
8
0
10
1.598000
20
1.025000
0
SEQEND
8
0
0
POLYLINE
8
0
66
1
40
0.008000
41
0.008000
0
VERTEX
8
0
10
1.645000
20
0.978000
0
VERTEX
8
0
10
1.731000
20
0.978000
0
SEQEND
8
0
0
POLYLINE
8
0
66
1
40
0.008000
41
0.008000
0
VERTEX
8
0
10
-0.398000
20
1.883000
0
VERTEX
8
0
10
-1.724000
20
1.883000
0
SEQEND
8
0
0
POLYLINE
8
0
66
1
40
0.008000
41
0.008000
0
VERTEX
8
0
10
-0.351000
20
-1.844000
0
VERTEX
8
0
10
-0.351000
20
-1.823000
0
SEQEND
8
0
0
POLYLINE
8
0
66
1
40
0.008000
41
0.008000
0
VERTEX
8
0
10
-0.304000
20
-1.776000
0
VERTEX
8
0
10
0.401000
20
-1.776000
0
SEQEND
8
0
0
POLYLINE
8
0
66
1
40
0.008000
41
0.008000
0
VERTEX
8
0
10
0.448000
20
-1.823000
0
VERTEX
8
0
10
0.448000
20
-1.844000
0
SEQEND
8
0
0
POLYLINE
8
0
66
1
40
0.008000
41
0.008000
0
VERTEX
8
0
10
0.495000
20
-1.891000
0
VERTEX
8
0
10
1.731000
20
-1.891000
0
SEQEND
8
0
0
POLYLINE
8
0
66
1
40
0.008000
41
0.008000
0
VERTEX
8
0
10
-0.398000
20
-1.891000
0
VERTEX
8
0
10
-1.724000
20
-1.891000
0
SEQEND
8
0
0
POLYLINE
8
0
66
1
40
0.008000
41
0.008000
0
VERTEX
8
0
10
-1.696000
20
-0.375000
0
VERTEX
8
0
10
-1.696000
20
0.367000
0
SEQEND
8
0
0
POLYLINE
8
0
66
1
40
0.008000
41
0.008000
0
VERTEX
8
0
10
-1.771000
20
0.442000
0
VERTEX
8
0
10
-1.771000
20
1.836000
0
SEQEND
8
0
0
POLYLINE
8
0
66
1
40
0.008000
41
0.008000
0
VERTEX
8
0
10
-1.771000
20
-1.844000
0
VERTEX
8
0
10
-1.770000
20
-1.854000
0
VERTEX
8
0
10
-1.767000
20
-1.863000
0
VERTEX
8
0
10
-1.763000
20
-1.871000
0
VERTEX
8
0
10
-1.757000
20
-1.878000
0
VERTEX
8
0
10
-1.750000
20
-1.883000
0
VERTEX
8
0
10
-1.742000
20
-1.887000
0
VERTEX
8
0
10
-1.733000
20
-1.890000
0
VERTEX
8
0
10
-1.724000
20
-1.891000
0
SEQEND
8
0
0
POLYLINE
8
0
66
1
40
0.008000
41
0.008000
0
VERTEX
8
0
10
-1.724000
20
-0.403000
0
VERTEX
8
0
10
-1.733000
20
-0.404000
0
VERTEX
8
0
10
-1.742000
20
-0.407000
0
VERTEX
8
0
10
-1.750000
20
-0.411000
0
VERTEX
8
0
10
-1.757000
20
-0.417000
0
VERTEX
8
0
10
-1.763000
20
-0.424000
0
VERTEX
8
0
10
-1.767000
20
-0.432000
0
VERTEX
8
0
10
-1.770000
20
-0.441000
0
VERTEX
8
0
10
-1.771000
20
-0.450000
0
SEQEND
8
0
0
POLYLINE
8
0
66
1
40
0.008000
41
0.008000
0
VERTEX
8
0
10
-1.771000
20
0.442000
0
VERTEX
8
0
10
-1.770000
20
0.432000
0
VERTEX
8
0
10
-1.767000
20
0.423000
0
VERTEX
8
0
10
-1.763000
20
0.415000
0
VERTEX
8
0
10
-1.757000
20
0.408000
0
VERTEX
8
0
10
-1.750000
20
0.403000
0
VERTEX
8
0
10
-1.742000
20
0.399000
0
VERTEX
8
0
10
-1.733000
20
0.396000
0
VERTEX
8
0
10
-1.724000
20
0.395000
0
SEQEND
8
0
0
POLYLINE
8
0
66
1
40
0.008000
41
0.008000
0
VERTEX
8
0
10
-1.724000
20
1.883000
0
VERTEX
8
0
10
-1.733000
20
1.882000
0
VERTEX
8
0
10
-1.742000
20
1.879000
0
VERTEX
8
0
10
-1.750000
20
1.875000
0
VERTEX
8
0
10
-1.757000
20
1.869000
0
VERTEX
8
0
10
-1.763000
20
1.862000
0
VERTEX
8
0
10
-1.767000
20
1.854000
0
VERTEX
8
0
10
-1.770000
20
1.845000
0
VERTEX
8
0
10
-1.771000
20
1.836000
0
SEQEND
8
0
0
POLYLINE
8
0
66
1
40
0.008000
41
0.008000
0
VERTEX
8
0
10
1.598000
20
1.836000
0
VERTEX
8
0
10
1.597000
20
1.845000
0
VERTEX
8
0
10
1.594000
20
1.854000
0
VERTEX
8
0
10
1.590000
20
1.862000
0
VERTEX
8
0
10
1.585000
20
1.869000
0
VERTEX
8
0
10
1.578000
20
1.875000
0
VERTEX
8
0
10
1.570000
20
1.879000
0
VERTEX
8
0
10
1.561000
20
1.882000
0
VERTEX
8
0
10
1.551000
20
1.883000
0
SEQEND
8
0
0
POLYLINE
8
0
66
1
40
0.008000
41
0.008000
0
VERTEX
8
0
10
1.598000
20
1.025000
0
VERTEX
8
0
10
1.599000
20
1.015000
0
VERTEX
8
0
10
1.602000
20
1.006000
0
VERTEX
8
0
10
1.606000
20
0.998000
0
VERTEX
8
0
10
1.612000
20
0.991000
0
VERTEX
8
0
10
1.619000
20
0.986000
0
VERTEX
8
0
10
1.627000
20
0.982000
0
VERTEX
8
0
10
1.636000
20
0.979000
0
VERTEX
8
0
10
1.645000
20
0.978000
0
SEQEND
8
0
0
POLYLINE
8
0
66
1
40
0.008000
41
0.008000
0
VERTEX
8
0
10
1.778000
20
0.931000
0
VERTEX
8
0
10
1.777000
20
0.940000
0
VERTEX
8
0
10
1.774000
20
0.949000
0
VERTEX
8
0
10
1.770000
20
0.957000
0
VERTEX
8
0
10
1.765000
20
0.964000
0
VERTEX
8
0
10
1.758000
20
0.970000
0
VERTEX
8
0
10
1.750000
20
0.974000
0
VERTEX
8
0
10
1.741000
20
0.977000
0
VERTEX
8
0
10
1.731000
20
0.978000
0
SEQEND
8
0
0
POLYLINE
8
0
66
1
40
0.008000
41
0.008000
0
VERTEX
8
0
10
1.731000
20
-1.891000
0
VERTEX
8
0
10
1.741000
20
-1.890000
0
VERTEX
8
0
10
1.750000
20
-1.887000
0
VERTEX
8
0
10
1.758000
20
-1.883000
0
VERTEX
8
0
10
1.765000
20
-1.878000
0
VERTEX
8
0
10
1.770000
20
-1.871000
0
VERTEX
8
0
10
1.774000
20
-1.863000
0
VERTEX
8
0
10
1.777000
20
-1.854000
0
VERTEX
8
0
10
1.778000
20
-1.844000
0
SEQEND
8
0
0
POLYLINE
8
0
66
1
40
0.008000
41
0.008000
0
VERTEX
8
0
10
0.448000
20
-1.844000
0
VERTEX
8
0
10
0.449000
20
-1.854000
0
VERTEX
8
0
10
0.452000
20
-1.863000
0
VERTEX
8
0
10
0.456000
20
-1.871000
0
VERTEX
8
0
10
0.462000
20
-1.878000
0
VERTEX
8
0
10
0.469000
20
-1.883000
0
VERTEX
8
0
10
0.477000
20
-1.887000
0
VERTEX
8
0
10
0.486000
20
-1.890000
0
VERTEX
8
0
10
0.495000
20
-1.891000
0
SEQEND
8
0
0
POLYLINE
8
0
66
1
40
0.008000
41
0.008000
0
VERTEX
8
0
10
0.448000
20
-1.823000
0
VERTEX
8
0
10
0.447000
20
-1.814000
0
VERTEX
8
0
10
0.444000
20
-1.805000
0
VERTEX
8
0
10
0.440000
20
-1.797000
0
VERTEX
8
0
10
0.435000
20
-1.790000
0
VERTEX
8
0
10
0.428000
20
-1.784000
0
VERTEX
8
0
10
0.420000
20
-1.780000
0
VERTEX
8
0
10
0.411000
20
-1.777000
0
VERTEX
8
0
10
0.401000
20
-1.776000
0
SEQEND
8
0
0
POLYLINE
8
0
66
1
40
0.008000
41
0.008000
0
VERTEX
8
0
10
-0.398000
20
-1.891000
0
VERTEX
8
0
10
-0.388000
20
-1.890000
0
VERTEX
8
0
10
-0.379000
20
-1.887000
0
VERTEX
8
0
10
-0.371000
20
-1.883000
0
VERTEX
8
0
10
-0.364000
20
-1.878000
0
VERTEX
8
0
10
-0.354000
20
-1.863000
0
VERTEX
8
0
10
-0.352000
20
-1.854000
0
VERTEX
8
0
10
-0.351000
20
-1.844000
0
SEQEND
8
0
0
POLYLINE
8
0
66
1
40
0.008000
41
0.008000
0
VERTEX
8
0
10
-0.304000
20
-1.776000
0
VERTEX
8
0
10
-0.313000
20
-1.777000
0
VERTEX
8
0
10
-0.322000
20
-1.780000
0
VERTEX
8
0
10
-0.330000
20
-1.784000
0
VERTEX
8
0
10
-0.337000
20
-1.790000
0
VERTEX
8
0
10
-0.343000
20
-1.797000
0
VERTEX
8
0
10
-0.347000
20
-1.805000
0
VERTEX
8
0
10
-0.350000
20
-1.814000
0
VERTEX
8
0
10
-0.351000
20
-1.823000
0
SEQEND
8
0
0
POLYLINE
8
0
66
1
40
0.008000
41
0.008000
0
VERTEX
8
0
10
0.448000
20
1.836000
0
VERTEX
8
0
10
0.448000
20
1.815000
0
SEQEND
8
0
0
POLYLINE
8
0
66
1
40
0.008000
41
0.008000
0
VERTEX
8
0
10
0.401000
20
1.768000
0
VERTEX
8
0
10
-0.304000
20
1.768000
0
SEQEND
8
0
0
POLYLINE
8
0
66
1
40
0.008000
41
0.008000
0
VERTEX
8
0
10
-0.351000
20
1.815000
0
VERTEX
8
0
10
-0.351000
20
1.836000
0
VERTEX
8
0
10
-0.352000
20
1.845000
0
VERTEX
8
0
10
-0.354000
20
1.854000
0
VERTEX
8
0
10
-0.364000
20
1.869000
0
VERTEX
8
0
10
-0.371000
20
1.875000
0
VERTEX
8
0
10
-0.379000
20
1.879000
0
VERTEX
8
0
10
-0.388000
20
1.882000
0
VERTEX
8
0
10
-0.398000
20
1.883000
0
SEQEND
8
0
0
POLYLINE
8
0
66
1
40
0.008000
41
0.008000
0
VERTEX
8
0
10
-0.351000
20
1.815000
0
VERTEX
8
0
10
-0.350000
20
1.805000
0
VERTEX
8
0
10
-0.347000
20
1.796000
0
VERTEX
8
0
10
-0.343000
20
1.788000
0
VERTEX
8
0
10
-0.337000
20
1.781000
0
VERTEX
8
0
10
-0.330000
20
1.776000
0
VERTEX
8
0
10
-0.322000
20
1.772000
0
VERTEX
8
0
10
-0.313000
20
1.769000
0
VERTEX
8
0
10
-0.304000
20
1.768000
0
SEQEND
8
0
0
POLYLINE
8
0
66
1
40
0.008000
41
0.008000
0
VERTEX
8
0
10
0.495000
20
1.883000
0
VERTEX
8
0
10
0.486000
20
1.882000
0
VERTEX
8
0
10
0.477000
20
1.879000
0
VERTEX
8
0
10
0.469000
20
1.875000
0
VERTEX
8
0
10
0.462000
20
1.869000
0
VERTEX
8
0
10
0.456000
20
1.862000
0
VERTEX
8
0
10
0.452000
20
1.854000
0
VERTEX
8
0
10
0.449000
20
1.845000
0
VERTEX
8
0
10
0.448000
20
1.836000
0
SEQEND
8
0
0
POLYLINE
8
0
66
1
40
0.008000
41
0.008000
0
VERTEX
8
0
10
0.401000
20
1.768000
0
VERTEX
8
0
10
0.411000
20
1.769000
0
VERTEX
8
0
10
0.420000
20
1.772000
0
VERTEX
8
0
10
0.428000
20
1.776000
0
VERTEX
8
0
10
0.435000
20
1.781000
0
VERTEX
8
0
10
0.440000
20
1.788000
0
VERTEX
8
0
10
0.444000
20
1.796000
0
VERTEX
8
0
10
0.447000
20
1.805000
0
VERTEX
8
0
10
0.448000
20
1.815000
0
SEQEND
8
0
0
POLYLINE
8
0
66
1
40
0.008000
41
0.008000
0
VERTEX
8
0
10
-1.724000
20
0.395000
0
VERTEX
8
0
10
-1.713000
20
0.393000
0
VERTEX
8
0
10
-1.704000
20
0.387000
0
VERTEX
8
0
10
-1.698000
20
0.378000
0
VERTEX
8
0
10
-1.696000
20
0.367000
0
SEQEND
8
0
0
POLYLINE
8
0
66
1
40
0.008000
41
0.008000
0
VERTEX
8
0
10
-1.696000
20
-0.375000
0
VERTEX
8
0
10
-1.698000
20
-0.386000
0
VERTEX
8
0
10
-1.704000
20
-0.395000
0
VERTEX
8
0
10
-1.713000
20
-0.401000
0
VERTEX
8
0
10
-1.724000
20
-0.403000
0
SEQEND
8
0
0
POLYLINE
8
0
66
1
40
0.008000
41
0.008000
0
VERTEX
8
0
10
1.703000
20
0.367000
0
VERTEX
8
0
10
1.703000
20
-0.375000
0
SEQEND
8
0
0
POLYLINE
8
0
66
1
40
0.008000
41
0.008000
0
VERTEX
8
0
10
1.731000
20
0.395000
0
VERTEX
8
0
10
1.741000
20
0.396000
0
VERTEX
8
0
10
1.750000
20
0.399000
0
VERTEX
8
0
10
1.758000
20
0.403000
0
VERTEX
8
0
10
1.765000
20
0.408000
0
VERTEX
8
0
10
1.770000
20
0.415000
0
VERTEX
8
0
10
1.774000
20
0.423000
0
VERTEX
8
0
10
1.777000
20
0.432000
0
VERTEX
8
0
10
1.778000
20
0.442000
0
SEQEND
8
0
0
POLYLINE
8
0
66
1
40
0.008000
41
0.008000
0
VERTEX
8
0
10
1.778000
20
-0.450000
0
VERTEX
8
0
10
1.777000
20
-0.441000
0
VERTEX
8
0
10
1.774000
20
-0.432000
0
VERTEX
8
0
10
1.770000
20
-0.424000
0
VERTEX
8
0
10
1.765000
20
-0.417000
0
VERTEX
8
0
10
1.758000
20
-0.411000
0
VERTEX
8
0
10
1.750000
20
-0.407000
0
VERTEX
8
0
10
1.741000
20
-0.404000
0
VERTEX
8
0
10
1.731000
20
-0.403000
0
VERTEX
8
0
10
1.720000
20
-0.401000
0
VERTEX
8
0
10
1.711000
20
-0.395000
0
VERTEX
8
0
10
1.705000
20
-0.386000
0
VERTEX
8
0
10
1.703000
20
-0.375000
0
SEQEND
8
0
0
POLYLINE
8
0
66
1
40
0.008000
41
0.008000
0
VERTEX
8
0
10
1.703000
20
0.367000
0
VERTEX
8
0
10
1.705000
20
0.378000
0
VERTEX
8
0
10
1.711000
20
0.387000
0
VERTEX
8
0
10
1.720000
20
0.393000
0
VERTEX
8
0
10
1.731000
20
0.395000
0
SEQEND
8
0
0
POLYLINE
8
0
66
1
40
0.008000
41
0.008000
0
VERTEX
8
0
10
1.778000
20
0.442000
0
VERTEX
8
0
10
1.778000
20
0.931000
0
SEQEND
8
0
0
POLYLINE
8
0
66
1
40
0.040000
41
0.040000
0
VERTEX
8
0
10
-0.617000
20
-0.624000
0
VERTEX
8
0
10
-0.617000
20
-1.746000
0
SEQEND
8
0
0
POLYLINE
8
0
66
1
40
0.040000
41
0.040000
0
VERTEX
8
0
10
-0.275000
20
-0.624000
0
VERTEX
8
0
10
-0.275000
20
-1.746000
0
SEQEND
8
0
0
POLYLINE
8
0
66
1
40
0.040000
41
0.040000
0
VERTEX
8
0
10
-0.617000
20
-0.624000
0
VERTEX
8
0
10
-0.275000
20
-0.624000
0
SEQEND
8
0
0
POLYLINE
8
0
66
1
40
0.040000
41
0.040000
0
VERTEX
8
0
10
-0.617000
20
-1.746000
0
VERTEX
8
0
10
-0.275000
20
-1.746000
0
SEQEND
8
0
0
POLYLINE
8
0
66
1
40
0.040000
41
0.040000
0
VERTEX
8
0
10
-1.720000
20
-0.513000
0
VERTEX
8
0
10
-1.720000
20
-0.950000
0
SEQEND
8
0
0
POLYLINE
8
0
66
1
40
0.040000
41
0.040000
0
VERTEX
8
0
10
-1.208000
20
-0.513000
0
VERTEX
8
0
10
-1.208000
20
-0.950000
0
SEQEND
8
0
0
POLYLINE
8
0
66
1
40
0.040000
41
0.040000
0
VERTEX
8
0
10
-1.720000
20
-0.513000
0
VERTEX
8
0
10
-1.208000
20
-0.513000
0
SEQEND
8
0
0
POLYLINE
8
0
66
1
40
0.040000
41
0.040000
0
VERTEX
8
0
10
-1.720000
20
-0.950000
0
VERTEX
8
0
10
-1.208000
20
-0.950000
0
SEQEND
8
0
0
POLYLINE
8
0
66
1
40
0.040000
41
0.040000
0
VERTEX
8
0
10
0.929000
20
-0.202000
0
VERTEX
8
0
10
0.929000
20
-0.565000
0
SEQEND
8
0
0
POLYLINE
8
0
66
1
40
0.040000
41
0.040000
0
VERTEX
8
0
10
-1.011000
20
0.356000
0
VERTEX
8
0
10
-1.011000
20
-0.435000
0
SEQEND
8
0
0
POLYLINE
8
0
66
1
40
0.040000
41
0.040000
0
VERTEX
8
0
10
-1.220000
20
0.356000
0
VERTEX
8
0
10
1.661000
20
0.356000
0
SEQEND
8
0
0
POLYLINE
8
0
66
1
40
0.040000
41
0.040000
0
VERTEX
8
0
10
-1.011000
20
-0.435000
0
VERTEX
8
0
10
0.870000
20
-0.435000
0
SEQEND
8
0
0
POLYLINE
8
0
66
1
40
0.040000
41
0.040000
0
VERTEX
8
0
10
-1.609000
20
0.970000
0
VERTEX
8
0
10
-1.609000
20
0.293000
0
SEQEND
8
0
0
POLYLINE
8
0
66
1
40
0.040000
41
0.040000
0
VERTEX
8
0
10
-1.220000
20
0.592000
0
VERTEX
8
0
10
-1.220000
20
0.293000
0
SEQEND
8
0
0
POLYLINE
8
0
66
1
40
0.040000
41
0.040000
0
VERTEX
8
0
10
-1.609000
20
0.596000
0
VERTEX
8
0
10
-0.842000
20
0.596000
0
SEQEND
8
0
0
POLYLINE
8
0
66
1
40
0.040000
41
0.040000
0
VERTEX
8
0
10
-1.609000
20
0.293000
0
VERTEX
8
0
10
-1.220000
20
0.293000
0
SEQEND
8
0
0
POLYLINE
8
0
66
1
40
0.040000
41
0.040000
0
VERTEX
8
0
10
0.110000
20
0.734000
0
VERTEX
8
0
10
0.110000
20
0.356000
0
SEQEND
8
0
0
POLYLINE
8
0
66
1
40
0.040000
41
0.040000
0
VERTEX
8
0
10
0.787000
20
1.301000
0
VERTEX
8
0
10
0.787000
20
0.734000
0
SEQEND
8
0
0
POLYLINE
8
0
66
1
40
0.040000
41
0.040000
0
VERTEX
8
0
10
-0.842000
20
0.734000
0
VERTEX
8
0
10
1.661000
20
0.734000
0
SEQEND
8
0
0
POLYLINE
8
0
66
1
40
0.040000
41
0.040000
0
VERTEX
8
0
10
-0.842000
20
1.301000
0
VERTEX
8
0
10
0.787000
20
1.301000
0
SEQEND
8
0
0
POLYLINE
8
0
66
1
40
0.040000
41
0.040000
0
VERTEX
8
0
10
-1.609000
20
0.970000
0
VERTEX
8
0
10
-0.842000
20
0.970000
0
SEQEND
8
0
0
POLYLINE
8
0
66
1
40
0.040000
41
0.040000
0
VERTEX
8
0
10
-0.842000
20
1.301000
0
VERTEX
8
0
10
-0.842000
20
0.356000
0
SEQEND
8
0
0
POLYLINE
8
0
66
1
40
0.040000
41
0.040000
0
VERTEX
8
0
10
1.661000
20
0.734000
0
VERTEX
8
0
10
1.661000
20
0.356000
0
SEQEND
8
0
0
POLYLINE
8
0
66
1
40
0.040000
41
0.040000
0
VERTEX
8
0
10
-0.062000
20
0.356000
0
VERTEX
8
0
10
-0.062000
20
-0.435000
0
SEQEND
8
0
0
POLYLINE
8
0
66
1
40
0.040000
41
0.040000
0
VERTEX
8
0
10
0.870000
20
0.356000
0
VERTEX
8
0
10
0.870000
20
-0.435000
0
SEQEND
8
0
0
POLYLINE
8
0
66
1
40
0.040000
41
0.040000
0
VERTEX
8
0
10
1.591000
20
-0.202000
0
VERTEX
8
0
10
1.591000
20
-0.565000
0
SEQEND
8
0
0
POLYLINE
8
0
66
1
40
0.040000
41
0.040000
0
VERTEX
8
0
10
0.929000
20
-0.202000
0
VERTEX
8
0
10
1.591000
20
-0.202000
0
SEQEND
8
0
0
POLYLINE
8
0
66
1
40
0.040000
41
0.040000
0
VERTEX
8
0
10
0.929000
20
-0.565000
0
VERTEX
8
0
10
1.591000
20
-0.565000
0
SEQEND
8
0
0
POLYLINE
8
0
66
1
40
0.040000
41
0.040000
0
VERTEX
8
0
10
1.701000
20
-0.565000
0
VERTEX
8
0
10
1.701000
20
-1.419000
0
SEQEND
8
0
0
POLYLINE
8
0
66
1
40
0.040000
41
0.040000
0
VERTEX
8
0
10
1.248000
20
-0.565000
0
VERTEX
8
0
10
1.248000
20
-1.419000
0
SEQEND
8
0
0
POLYLINE
8
0
66
1
40
0.040000
41
0.040000
0
VERTEX
8
0
10
1.701000
20
-1.419000
0
VERTEX
8
0
10
1.248000
20
-1.419000
0
SEQEND
8
0
0
POLYLINE
8
0
66
1
40
0.040000
41
0.040000
0
VERTEX
8
0
10
1.701000
20
-0.565000
0
VERTEX
8
0
10
1.248000
20
-0.565000
0
SEQEND
8
0
0
ENDSEC
0
EOF

